<?xml version="1.0" encoding="UTF-8"?>
<svg xmlns="http://www.w3.org/2000/svg" xmlns:xlink="http://www.w3.org/1999/xlink" width="375pt" height="374.999991pt" viewBox="0 0 375 374.999991" version="1.2">
<defs>
<clipPath id="clip1">
  <path d="M 89.753906 167 L 266.003906 167 L 266.003906 268.359375 L 89.753906 268.359375 Z M 89.753906 167 "/>
</clipPath>
<clipPath id="clip2">
  <path d="M 89.753906 251 L 266.003906 251 L 266.003906 268.359375 L 89.753906 268.359375 Z M 89.753906 251 "/>
</clipPath>
</defs>
<g id="surface1">
<g clip-path="url(#clip1)" clip-rule="nonzero">
<path style=" stroke:none;fill-rule:nonzero;fill:rgb(93.728638%,95.689392%,96.859741%);fill-opacity:1;" d="M 266.003906 268.359375 L 89.613281 268.359375 L 89.613281 167.617188 L 266.003906 167.617188 Z M 266.003906 268.359375 "/>
</g>
<path style="fill:none;stroke-width:2;stroke-linecap:butt;stroke-linejoin:miter;stroke:rgb(81.17981%,82.749939%,83.918762%);stroke-opacity:1;stroke-miterlimit:10;" d="M 26.99964 8.00026 L 50.000294 8.00026 " transform="matrix(-4.199779,-0.000000000000000514,0.000000000000000514,-4.197476,312.201106,268.358243)"/>
<path style="fill:none;stroke-width:2;stroke-linecap:butt;stroke-linejoin:miter;stroke:rgb(81.17981%,82.749939%,83.918762%);stroke-opacity:1;stroke-miterlimit:10;" d="M 26.99964 12.000059 L 31.999904 12.000059 " transform="matrix(-4.199779,-0.000000000000000514,0.000000000000000514,-4.197476,312.201106,268.358243)"/>
<path style="fill:none;stroke-width:2;stroke-linecap:butt;stroke-linejoin:miter;stroke:rgb(81.17981%,82.749939%,83.918762%);stroke-opacity:1;stroke-miterlimit:10;" d="M 33.999637 12.000059 L 45.999897 12.000059 " transform="matrix(-4.199779,-0.000000000000000514,0.000000000000000514,-4.197476,312.201106,268.358243)"/>
<g clip-path="url(#clip2)" clip-rule="nonzero">
<path style=" stroke:none;fill-rule:nonzero;fill:rgb(95.689392%,37.649536%,54.119873%);fill-opacity:1;" d="M 266.003906 268.359375 L 89.613281 268.359375 L 89.613281 251.566406 L 266.003906 251.566406 Z M 266.003906 268.359375 "/>
</g>
<path style="fill:none;stroke-width:2;stroke-linecap:butt;stroke-linejoin:miter;stroke:rgb(36.859131%,36.079407%,36.079407%);stroke-opacity:1;stroke-miterlimit:10;" d="M 14.000443 19.999658 L 24.00004 19.999658 " transform="matrix(-4.199779,-0.000000000000000514,0.000000000000000514,-4.197476,312.201106,268.358243)"/>
<path style=" stroke:none;fill-rule:nonzero;fill:rgb(7.449341%,58.428955%,74.899292%);fill-opacity:1;" d="M 253.402344 238.976562 L 211.40625 238.976562 L 211.40625 197 L 253.402344 197 Z M 253.402344 238.976562 "/>
<path style=" stroke:none;fill-rule:nonzero;fill:rgb(28.62854%,69.799805%,83.918762%);fill-opacity:1;" d="M 245.003906 230.582031 L 219.804688 230.582031 L 219.804688 205.394531 L 245.003906 205.394531 Z M 245.003906 230.582031 "/>
<path style="fill:none;stroke-width:2;stroke-linecap:butt;stroke-linejoin:miter;stroke:rgb(100%,100%,100%);stroke-opacity:1;stroke-miterlimit:10;" d="M 17.99991 12.000059 L 19.999643 12.000059 " transform="matrix(-4.199779,-0.000000000000000514,0.000000000000000514,-4.197476,312.201106,268.358243)"/>
<path style=" stroke:none;fill-rule:nonzero;fill:rgb(100%,86.268616%,45.098877%);fill-opacity:1;" d="M 135.808594 45.890625 L 135.808594 66.878906 L 119.011719 117.25 L 144.210938 167.617188 L 165.207031 167.617188 L 165.207031 45.890625 Z M 135.808594 45.890625 "/>
<path style=" stroke:none;fill-rule:nonzero;fill:rgb(100%,79.60968%,34.899902%);fill-opacity:1;" d="M 198.808594 167.617188 C 202.03125 167.617188 205.253906 166.390625 207.714844 163.929688 C 210.175781 161.46875 211.40625 158.25 211.40625 155.027344 C 211.40625 151.800781 210.175781 148.582031 207.714844 146.125 C 205.253906 143.664062 202.03125 142.433594 198.808594 142.433594 L 194.605469 142.433594 L 194.605469 167.617188 Z M 198.808594 167.617188 "/>
<path style=" stroke:none;fill-rule:nonzero;fill:rgb(100%,79.60968%,34.899902%);fill-opacity:1;" d="M 165.207031 167.617188 L 165.207031 113.050781 L 148.410156 113.050781 C 148.410156 138.238281 165.207031 167.617188 165.207031 167.617188 Z M 165.207031 167.617188 "/>
<path style=" stroke:none;fill-rule:nonzero;fill:rgb(100%,86.268616%,45.098877%);fill-opacity:1;" d="M 165.207031 142.433594 L 165.207031 167.617188 C 165.207031 176.015625 165.207031 197 177.808594 197 C 190.40625 197 194.605469 180.210938 194.605469 171.816406 L 194.605469 138.238281 C 194.605469 127.605469 197.40625 116.972656 203.007812 108.855469 C 208.609375 100.734375 211.40625 90.105469 211.40625 79.472656 L 211.40625 45.890625 L 148.410156 45.890625 L 148.410156 113.050781 C 158.441406 118.863281 165.207031 130.011719 165.207031 142.433594 Z M 165.207031 142.433594 "/>
<path style=" stroke:none;fill-rule:nonzero;fill:rgb(27.839661%,27.059937%,27.059937%);fill-opacity:1;" d="M 219.804688 45.890625 L 127.410156 45.890625 L 127.410156 -0.28125 L 219.804688 -0.28125 Z M 219.804688 45.890625 "/>
<path style=" stroke:none;fill-rule:nonzero;fill:rgb(36.859131%,36.079407%,36.079407%);fill-opacity:1;" d="M 219.804688 45.890625 L 173.609375 45.890625 L 173.609375 -0.28125 L 219.804688 -0.28125 Z M 219.804688 45.890625 "/>
<path style="fill:none;stroke-width:2;stroke-linecap:butt;stroke-linejoin:miter;stroke:rgb(100%,100%,100%);stroke-opacity:1;stroke-miterlimit:10;" d="M 24.00004 57.000129 L 25.999773 57.000129 " transform="matrix(-4.199779,-0.000000000000000514,0.000000000000000514,-4.197476,312.201106,268.358243)"/>
</g>
</svg>
