<?xml version="1.0" encoding="UTF-8"?>
<svg xmlns="http://www.w3.org/2000/svg" xmlns:xlink="http://www.w3.org/1999/xlink" width="562.5pt" height="562.499982pt" viewBox="0 0 562.5 562.499982" version="1.2">
<defs>
<clipPath id="clip1">
  <path d="M 36.523438 181 L 255.523438 181 L 255.523438 428.613281 L 36.523438 428.613281 Z M 36.523438 181 "/>
</clipPath>
<clipPath id="clip2">
  <path d="M 57 120.667969 L 98 120.667969 L 98 163 L 57 163 Z M 57 120.667969 "/>
</clipPath>
<clipPath id="clip3">
  <path d="M 103 120.667969 L 143 120.667969 L 143 163 L 103 163 Z M 103 120.667969 "/>
</clipPath>
<clipPath id="clip4">
  <path d="M 148 120.667969 L 196 120.667969 L 196 163 L 148 163 Z M 148 120.667969 "/>
</clipPath>
<clipPath id="clip5">
  <path d="M 202 120.667969 L 236 120.667969 L 236 163 L 202 163 Z M 202 120.667969 "/>
</clipPath>
<clipPath id="clip6">
  <path d="M 320.367188 178 L 528.867188 178 L 528.867188 414.667969 L 320.367188 414.667969 Z M 320.367188 178 "/>
</clipPath>
<clipPath id="clip7">
  <path d="M 369 120.667969 L 402 120.667969 L 402 161 L 369 161 Z M 369 120.667969 "/>
</clipPath>
<clipPath id="clip8">
  <path d="M 407 120.667969 L 440 120.667969 L 440 161 L 407 161 Z M 407 120.667969 "/>
</clipPath>
<clipPath id="clip9">
  <path d="M 445 120.667969 L 478 120.667969 L 478 161 L 445 161 Z M 445 120.667969 "/>
</clipPath>
</defs>
<g id="surface1">
<g clip-path="url(#clip1)" clip-rule="nonzero">
<path style=" stroke:none;fill-rule:nonzero;fill:rgb(89.408875%,30.198669%,14.898682%);fill-opacity:1;" d="M 255.675781 181.183594 L 235.726562 403.835938 L 146.035156 428.601562 L 56.597656 403.871094 L 36.667969 181.183594 L 255.679688 181.183594 Z M 255.675781 181.183594 "/>
</g>
<path style=" stroke:none;fill-rule:nonzero;fill:rgb(94.509888%,39.608765%,16.079712%);fill-opacity:1;" d="M 146.171875 409.671875 L 218.648438 389.660156 L 235.699219 199.394531 L 146.171875 199.394531 Z M 146.171875 409.671875 "/>
<path style=" stroke:none;fill-rule:nonzero;fill:rgb(92.158508%,92.158508%,92.158508%);fill-opacity:1;" d="M 107.386719 254.015625 L 146.171875 254.015625 L 146.171875 226.699219 L 77.421875 226.699219 L 78.078125 234.03125 L 84.816406 309.292969 L 146.171875 309.292969 L 146.171875 281.988281 L 109.890625 281.988281 Z M 107.386719 254.015625 "/>
<path style=" stroke:none;fill-rule:nonzero;fill:rgb(92.158508%,92.158508%,92.158508%);fill-opacity:1;" d="M 113.566406 322.949219 L 86.042969 322.949219 L 89.882812 365.835938 L 146.042969 381.367188 L 146.171875 381.332031 L 146.171875 352.914062 L 146.054688 352.949219 L 115.519531 344.730469 Z M 113.566406 322.949219 "/>
<g clip-path="url(#clip2)" clip-rule="nonzero">
<path style=" stroke:none;fill-rule:nonzero;fill:rgb(0%,0%,0%);fill-opacity:1;" d="M 57.042969 120.667969 L 70.976562 120.667969 L 70.976562 134.382812 L 83.722656 134.382812 L 83.722656 120.667969 L 97.65625 120.667969 L 97.65625 162.195312 L 83.722656 162.195312 L 83.722656 148.289062 L 70.976562 148.289062 L 70.976562 162.195312 L 57.042969 162.195312 Z M 57.042969 120.667969 "/>
</g>
<g clip-path="url(#clip3)" clip-rule="nonzero">
<path style=" stroke:none;fill-rule:nonzero;fill:rgb(0%,0%,0%);fill-opacity:1;" d="M 115.980469 134.4375 L 103.714844 134.4375 L 103.714844 120.667969 L 142.191406 120.667969 L 142.191406 134.4375 L 129.914062 134.4375 L 129.914062 162.195312 L 115.980469 162.195312 Z M 115.980469 134.4375 "/>
</g>
<g clip-path="url(#clip4)" clip-rule="nonzero">
<path style=" stroke:none;fill-rule:nonzero;fill:rgb(0%,0%,0%);fill-opacity:1;" d="M 148.292969 120.667969 L 162.820312 120.667969 L 171.757812 135.257812 L 180.6875 120.667969 L 195.21875 120.667969 L 195.21875 162.195312 L 181.347656 162.195312 L 181.347656 141.613281 L 171.757812 156.375 L 171.515625 156.375 L 161.925781 141.613281 L 161.925781 162.195312 L 148.292969 162.195312 Z M 148.292969 120.667969 "/>
</g>
<g clip-path="url(#clip5)" clip-rule="nonzero">
<path style=" stroke:none;fill-rule:nonzero;fill:rgb(0%,0%,0%);fill-opacity:1;" d="M 202.15625 120.667969 L 216.089844 120.667969 L 216.089844 148.46875 L 235.691406 148.46875 L 235.691406 162.195312 L 202.15625 162.195312 Z M 202.15625 120.667969 "/>
</g>
<path style=" stroke:none;fill-rule:nonzero;fill:rgb(100%,100%,100%);fill-opacity:1;" d="M 146.078125 309.292969 L 179.84375 309.292969 L 176.660156 344.714844 L 146.078125 352.941406 L 146.078125 381.347656 L 202.285156 365.835938 L 202.699219 361.21875 L 209.144531 289.316406 L 209.816406 281.988281 L 146.078125 281.988281 Z M 146.078125 309.292969 "/>
<path style=" stroke:none;fill-rule:nonzero;fill:rgb(100%,100%,100%);fill-opacity:1;" d="M 146.078125 253.945312 L 146.078125 254.015625 L 212.304688 254.015625 L 212.855469 247.875 L 214.109375 234.03125 L 214.761719 226.699219 L 146.078125 226.699219 Z M 146.078125 253.945312 "/>
<g clip-path="url(#clip6)" clip-rule="nonzero">
<path style=" stroke:none;fill-rule:nonzero;fill:rgb(14.898682%,30.198669%,89.408875%);fill-opacity:1;" d="M 424.632812 414.929688 L 339.484375 391.296875 L 320.507812 178.5 L 529.011719 178.496094 L 510.027344 391.261719 L 424.640625 414.925781 Z M 424.632812 414.929688 "/>
</g>
<path style=" stroke:none;fill-rule:nonzero;fill:rgb(16.079712%,39.608765%,94.509888%);fill-opacity:1;" d="M 493.765625 377.714844 L 509.996094 195.898438 L 424.765625 195.898438 L 424.765625 396.835938 Z M 493.765625 377.714844 "/>
<path style=" stroke:none;fill-rule:nonzero;fill:rgb(92.158508%,92.158508%,92.158508%);fill-opacity:1;" d="M 364.011719 274.824219 L 366.351562 300.914062 L 424.765625 300.914062 L 424.765625 274.824219 Z M 364.011719 274.824219 "/>
<path style=" stroke:none;fill-rule:nonzero;fill:rgb(92.158508%,92.158508%,92.158508%);fill-opacity:1;" d="M 359.308594 221.992188 L 361.683594 248.09375 L 424.765625 248.09375 L 424.765625 221.992188 Z M 359.308594 221.992188 "/>
<path style=" stroke:none;fill-rule:nonzero;fill:rgb(92.158508%,92.158508%,92.158508%);fill-opacity:1;" d="M 424.765625 342.601562 L 424.652344 342.632812 L 395.578125 334.78125 L 393.722656 313.964844 L 367.515625 313.964844 L 371.171875 354.949219 L 424.644531 369.789062 L 424.765625 369.757812 Z M 424.765625 342.601562 "/>
<g clip-path="url(#clip7)" clip-rule="nonzero">
<path style=" stroke:none;fill-rule:nonzero;fill:rgb(0%,0%,0%);fill-opacity:1;" d="M 369.582031 120.667969 L 401.199219 120.667969 L 401.199219 133.886719 L 382.800781 133.886719 L 382.800781 147.105469 L 401.195312 147.105469 L 401.195312 160.324219 L 369.582031 160.324219 Z M 369.582031 120.667969 "/>
</g>
<g clip-path="url(#clip8)" clip-rule="nonzero">
<path style=" stroke:none;fill-rule:nonzero;fill:rgb(0%,0%,0%);fill-opacity:1;" d="M 407.519531 120.667969 L 439.132812 120.667969 L 439.132812 132.164062 L 420.742188 132.164062 L 420.742188 134.460938 L 439.132812 134.460938 L 439.132812 160.898438 L 407.519531 160.898438 L 407.519531 148.832031 L 425.917969 148.832031 L 425.917969 146.53125 L 407.519531 146.53125 Z M 407.519531 120.667969 "/>
</g>
<g clip-path="url(#clip9)" clip-rule="nonzero">
<path style=" stroke:none;fill-rule:nonzero;fill:rgb(0%,0%,0%);fill-opacity:1;" d="M 445.460938 120.667969 L 477.074219 120.667969 L 477.074219 132.164062 L 458.675781 132.164062 L 458.675781 134.460938 L 477.074219 134.460938 L 477.074219 160.898438 L 445.460938 160.898438 L 445.460938 148.832031 L 463.851562 148.832031 L 463.851562 146.53125 L 445.460938 146.53125 Z M 445.460938 120.667969 "/>
</g>
<path style=" stroke:none;fill-rule:nonzero;fill:rgb(100%,100%,100%);fill-opacity:1;" d="M 485.355469 274.824219 L 490.0625 221.992188 L 424.675781 221.992188 L 424.675781 248.09375 L 461.457031 248.09375 L 459.085938 274.824219 L 424.675781 274.824219 L 424.675781 300.914062 L 456.820312 300.914062 L 453.789062 334.765625 L 424.675781 342.625 L 424.675781 369.773438 L 478.1875 354.949219 L 478.578125 350.535156 L 484.71875 281.828125 Z M 485.355469 274.824219 "/>
</g>
</svg>
