<?xml version="1.0" encoding="UTF-8"?>
<svg xmlns="http://www.w3.org/2000/svg" xmlns:xlink="http://www.w3.org/1999/xlink" width="562.5pt" height="562.499982pt" viewBox="0 0 562.5 562.499982" version="1.2">
<defs>
<clipPath id="clip1">
  <path d="M 112.5 112.5 L 450 112.5 L 450 450 L 112.5 450 Z M 112.5 112.5 "/>
</clipPath>
</defs>
<g id="surface1">
<g clip-path="url(#clip1)" clip-rule="nonzero">
<path style=" stroke:none;fill-rule:nonzero;fill:rgb(100%,83.918762%,0%);fill-opacity:1;" d="M 112.5 112.5 L 450 112.5 L 450 450 L 112.5 450 Z M 112.5 112.5 "/>
</g>
<path style=" stroke:none;fill-rule:nonzero;fill:rgb(0%,0%,0.389099%);fill-opacity:1;" d="M 333.167969 365.128906 C 339.65625 375.664062 346.707031 385.761719 361.640625 385.761719 C 374.183594 385.761719 380.765625 379.527344 380.765625 370.902344 C 380.765625 360.582031 373.960938 356.914062 360.160156 350.90625 L 352.59375 347.679688 C 330.757812 338.417969 316.238281 326.8125 316.238281 302.296875 C 316.238281 279.703125 333.535156 262.507812 360.5625 262.507812 C 379.808594 262.507812 393.636719 269.175781 403.613281 286.632812 L 380.042969 301.695312 C 374.859375 292.433594 369.253906 288.789062 360.5625 288.789062 C 351.695312 288.789062 346.078125 294.382812 346.078125 301.695312 C 346.078125 310.734375 351.703125 314.390625 364.6875 319.988281 L 372.253906 323.210938 C 397.988281 334.171875 412.5 345.367188 412.5 370.527344 C 412.5 397.640625 391.085938 412.5 362.34375 412.5 C 334.226562 412.5 318.261719 398.390625 309.375 380.925781 Z M 224.550781 365.898438 C 229.292969 374.390625 236.503906 380.925781 246.871094 380.925781 C 256.789062 380.925781 262.5 377.007812 262.5 361.773438 L 262.5 262.5 L 293.746094 262.5 L 293.746094 366.570312 C 293.746094 398.136719 275.4375 412.5 248.699219 412.5 C 224.539062 412.5 207.101562 396.132812 199.996094 380.925781 Z M 224.550781 365.898438 "/>
</g>
</svg>
