<svg version="1.1"
      xmlns="http://www.w3.org/2000/svg"
      xmlns:xlink="http://www.w3.org/1999/xlink"  id="snapshot-48802" width="250" height="250" viewBox="0 0 250 250"><desc>This image was made on Patterninja.com</desc><defs>
<!-- image 14028 -->
<g id="transformed-14028" data-image="14028" transform="translate(-67.8235889041709, -65.6532340592374) rotate(0, 67.8235889041709, 65.6532340592374)"><g><svg version="1.1" width="135.6471778083418px" height="131.3064681184748px" viewBox="0 0 135.6471778083418 131.3064681184748"><g id="original-14028"><svg xmlns="http://www.w3.org/2000/svg" viewBox="0 0 70 68" xmlns:xlink="http://www.w3.org/1999/xlink" version="1.1" preserveAspectRatio="xMidYMid meet">
  <path fill-rule="evenodd" d="M14 65c9.113 0 11-2.853 11-8 0-.169-.02-.832-.025-1h20.05c0 .168-.025.831-.025 1 0 5.147 1.887 8 11 8v3H14v-3z" fill="rgba(81, 96, 120, 1)" stroke="none"/>
  <rect width="70" height="54" y="2" fill-rule="evenodd" rx="6" fill="rgba(111, 130, 164, 1)" stroke="none"/>
  <path fill-rule="evenodd" d="M70 47V5.998A5.993 5.993 0 0 0 64.002 0H5.998A5.995 5.995 0 0 0 0 5.998V47h70z" fill="rgba(165, 181, 211, 1)" stroke="none"/>
  <circle cx="35" cy="52" r="3" fill-rule="evenodd" fill="rgba(80, 96, 121, 1)" stroke="none"/>
</svg>
</g></svg></g></g>
<!-- /image 14028 -->

<!-- image 34035 -->
<g id="transformed-34035" data-image="34035" transform="translate(-24, 212.152) rotate(0, 24, 22.84800000000001)"><g><svg version="1.1" width="48px" height="45.69600000000002px" viewBox="0 0 48 45.69600000000002"><g id="original-34035"><svg xmlns="http://www.w3.org/2000/svg" viewBox="0 0 66 63" xmlns:xlink="http://www.w3.org/1999/xlink" version="1.1" preserveAspectRatio="xMidYMid meet">
  <path fill-rule="evenodd" d="M60 63H6a6 6 0 0 1-6-6c0-22.091 15-28 33-28s33 5.909 33 28a6 6 0 0 1-6 6z" fill="rgba(68, 178, 182, 1)" stroke="none"/>
  <path fill-rule="evenodd" d="M19 31l15 6-6 9z" fill="rgba(255, 255, 255, 1)" stroke="none"/>
  <path fill-rule="evenodd" d="M48 31l-15 6 6 9z" fill="rgba(255, 255, 255, 1)" stroke="none"/>
  <circle cx="33" cy="19" r="18" fill-rule="evenodd" fill="rgba(242, 205, 174, 1)" stroke="none"/>
  <path fill-rule="evenodd" d="M51.96 19.785A30.636 30.636 0 0 1 48.5 20c-9.794 0-18.109-4.594-21.2-11h-.628a18.955 18.955 0 0 1-7 6.692 21.2 21.2 0 0 1-5.625 2.27A18.984 18.984 0 0 1 26.952 1h.094c.93-.311 1.883-.554 2.849-.725l.184-.028c.412-.067.828-.121 1.249-.163A19.254 19.254 0 0 1 33 0a19.009 19.009 0 0 1 18.614 15.171A19.09 19.09 0 0 1 52 19c0 .265-.029.523-.04.785z" fill="rgba(171, 97, 37, 1)" stroke="none"/>
</svg>
</g></svg></g></g>
<!-- /image 34035 -->
</defs><rect x="0" y="0" width="250" height="250" fill="rgba(41, 144, 209, 1)"></rect><use xlink:href="#transformed-14028" transform="translate(-250, -250)"></use><use xlink:href="#transformed-14028" transform="translate(0, -250)"></use><use xlink:href="#transformed-14028" transform="translate(250, -250)"></use><use xlink:href="#transformed-14028" transform="translate(-250, 0)"></use><use xlink:href="#transformed-14028" transform="translate(0, 0)"></use><use xlink:href="#transformed-14028" transform="translate(250, 0)"></use><use xlink:href="#transformed-14028" transform="translate(-250, 250)"></use><use xlink:href="#transformed-14028" transform="translate(0, 250)"></use><use xlink:href="#transformed-14028" transform="translate(250, 250)"></use><use xlink:href="#transformed-34035" transform="translate(-250, -250)"></use><use xlink:href="#transformed-34035" transform="translate(0, -250)"></use><use xlink:href="#transformed-34035" transform="translate(250, -250)"></use><use xlink:href="#transformed-34035" transform="translate(-250, 0)"></use><use xlink:href="#transformed-34035" transform="translate(0, 0)"></use><use xlink:href="#transformed-34035" transform="translate(250, 0)"></use><use xlink:href="#transformed-34035" transform="translate(-250, 250)"></use><use xlink:href="#transformed-34035" transform="translate(0, 250)"></use><use xlink:href="#transformed-34035" transform="translate(250, 250)"></use></svg>