<?xml version="1.0" encoding="UTF-8"?>
<svg xmlns="http://www.w3.org/2000/svg" xmlns:xlink="http://www.w3.org/1999/xlink" width="562.5pt" height="562.499982pt" viewBox="0 0 562.5 562.499982" version="1.2">
<defs>
<clipPath id="clip1">
  <path d="M 73 186 L 324 186 L 324 343.179688 L 73 343.179688 Z M 73 186 "/>
</clipPath>
<clipPath id="clip2">
  <path d="M 195 174.429688 L 209 174.429688 L 209 183 L 195 183 Z M 195 174.429688 "/>
</clipPath>
<clipPath id="clip3">
  <path d="M 65.566406 279 L 85 279 L 85 300 L 65.566406 300 Z M 65.566406 279 "/>
</clipPath>
<clipPath id="clip4">
  <path d="M 210 256 L 284 256 L 284 343.179688 L 210 343.179688 Z M 210 256 "/>
</clipPath>
<clipPath id="clip5">
  <path d="M 395 257 L 450 257 L 450 343.179688 L 395 343.179688 Z M 395 257 "/>
</clipPath>
<clipPath id="clip6">
  <path d="M 363 257 L 387 257 L 387 343.179688 L 363 343.179688 Z M 363 257 "/>
</clipPath>
<clipPath id="clip7">
  <path d="M 288 257 L 354 257 L 354 343.179688 L 288 343.179688 Z M 288 257 "/>
</clipPath>
<clipPath id="clip8">
  <path d="M 456 257 L 515.566406 257 L 515.566406 343.179688 L 456 343.179688 Z M 456 257 "/>
</clipPath>
</defs>
<g id="surface1">
<path style=" stroke:none;fill-rule:nonzero;fill:rgb(78.039551%,4.309082%,0%);fill-opacity:1;" d="M 171.855469 274.8125 C 170.375 279.296875 169.363281 283.796875 168.445312 288.144531 L 177.652344 295.890625 C 178.101562 291.164062 178.90625 286.441406 180.03125 281.714844 Z M 171.855469 274.8125 "/>
<path style=" stroke:none;fill-rule:nonzero;fill:rgb(78.039551%,4.309082%,0%);fill-opacity:1;" d="M 166.738281 318.957031 C 166.960938 325.390625 167.523438 330.601562 168.105469 334.238281 L 181.738281 339.453125 C 180.707031 334.726562 179.695312 329.382812 179.019531 323.683594 Z M 166.738281 318.957031 "/>
<g clip-path="url(#clip1)" clip-rule="nonzero">
<path style=" stroke:none;fill-rule:nonzero;fill:rgb(78.039551%,4.309082%,0%);fill-opacity:1;" d="M 74.363281 337.257812 C 73.726562 340.992188 73.519531 343.183594 73.519531 343.183594 L 73.539062 343.203125 L 163.34375 343.203125 C 163.34375 343.203125 146.183594 259.679688 203.023438 225.832031 C 215.417969 219.398438 254.875 195.394531 319.417969 246.308594 C 321.460938 244.488281 323.394531 243.027344 323.394531 243.027344 C 323.394531 243.027344 264.269531 180.113281 198.449219 187.125 C 165.257812 190.277344 124.5625 222.417969 100.691406 264.835938 C 82.539062 297.074219 76.3125 325.425781 74.363281 337.257812 Z M 74.363281 337.257812 "/>
</g>
<path style=" stroke:none;fill-rule:nonzero;fill:rgb(78.039551%,4.309082%,0%);fill-opacity:1;" d="M 118.65625 230.558594 L 110.59375 223.039062 C 107.628906 226.074219 104.796875 229.09375 102.191406 232.132812 L 110.949219 240.121094 C 113.332031 236.839844 115.957031 233.574219 118.675781 230.539062 Z M 118.65625 230.558594 "/>
<path style=" stroke:none;fill-rule:nonzero;fill:rgb(78.039551%,4.309082%,0%);fill-opacity:1;" d="M 197.117188 249.253906 L 191.996094 241.003906 C 189.390625 243.550781 186.988281 246.328125 184.945312 249.121094 L 190.402344 257.84375 C 192.335938 254.804688 194.601562 252.011719 197.117188 249.253906 Z M 197.117188 249.253906 "/>
<g clip-path="url(#clip2)" clip-rule="nonzero">
<path style=" stroke:none;fill-rule:nonzero;fill:rgb(78.039551%,4.309082%,0%);fill-opacity:1;" d="M 208.929688 181.820312 L 206.660156 174.429688 C 203.136719 174.429688 199.496094 174.675781 195.746094 175.160156 L 197.902344 182.304688 C 201.203125 181.949219 204.503906 181.820312 207.785156 181.820312 Z M 208.929688 181.820312 "/>
</g>
<path style=" stroke:none;fill-rule:nonzero;fill:rgb(78.039551%,4.309082%,0%);fill-opacity:1;" d="M 156.5 186.1875 C 153.648438 187.761719 150.703125 189.46875 147.628906 191.382812 L 152.859375 199.878906 C 155.824219 197.945312 158.65625 196.128906 161.617188 194.550781 Z M 156.5 186.1875 "/>
<g clip-path="url(#clip3)" clip-rule="nonzero">
<path style=" stroke:none;fill-rule:nonzero;fill:rgb(78.039551%,4.309082%,0%);fill-opacity:1;" d="M 84.320312 284.753906 L 71.25 279.652344 C 69.09375 284.863281 66.714844 290.941406 65.570312 294.203125 L 78.640625 299.285156 C 80.121094 295.160156 82.503906 289.234375 84.320312 284.753906 Z M 84.320312 284.753906 "/>
</g>
<g clip-path="url(#clip4)" clip-rule="nonzero">
<path style=" stroke:none;fill-rule:nonzero;fill:rgb(78.039551%,4.309082%,0%);fill-opacity:1;" d="M 210.523438 343.203125 L 232.351562 343.203125 L 232.351562 322.351562 L 251.214844 343.203125 L 283.488281 343.203125 L 258.136719 315.9375 L 258.136719 315.917969 C 258.136719 315.917969 278.03125 314.117188 278.03125 286.703125 C 278.03125 259.285156 253.9375 256.753906 253.9375 256.753906 L 210.523438 256.753906 Z M 232.332031 278.433594 L 249.828125 278.433594 C 249.828125 278.433594 254.722656 280.363281 254.722656 288.257812 C 254.722656 296.136719 249.714844 298.199219 249.714844 298.199219 L 232.332031 298.199219 Z M 232.332031 278.433594 "/>
</g>
<g clip-path="url(#clip5)" clip-rule="nonzero">
<path style=" stroke:none;fill-rule:nonzero;fill:rgb(78.039551%,4.309082%,0%);fill-opacity:1;" d="M 395.683594 257.355469 L 395.683594 343.183594 L 449.691406 343.183594 L 449.691406 321 L 418.65625 321 L 418.65625 257.355469 Z M 395.683594 257.355469 "/>
</g>
<g clip-path="url(#clip6)" clip-rule="nonzero">
<path style=" stroke:none;fill-rule:nonzero;fill:rgb(78.039551%,4.309082%,0%);fill-opacity:1;" d="M 363.1875 257.355469 L 386.25 257.355469 L 386.25 343.183594 L 363.1875 343.183594 Z M 363.1875 257.355469 "/>
</g>
<path style=" stroke:none;fill-rule:nonzero;fill:rgb(78.039551%,4.309082%,0%);fill-opacity:1;" d="M 261.097656 185.8125 C 260.066406 185.214844 257.234375 183.75 250.074219 181.574219 L 249.605469 189.582031 C 253.355469 190.914062 256.992188 192.375 260.628906 193.933594 L 260.628906 193.953125 Z M 261.097656 185.8125 "/>
<path style=" stroke:none;fill-rule:nonzero;fill:rgb(78.039551%,4.309082%,0%);fill-opacity:1;" d="M 261.097656 221.21875 C 257.234375 220.375 253.484375 219.886719 249.847656 219.644531 L 249.847656 219.660156 L 249.398438 227.292969 C 253.148438 227.40625 256.898438 227.894531 260.648438 228.738281 Z M 261.097656 221.21875 "/>
<g clip-path="url(#clip7)" clip-rule="nonzero">
<path style=" stroke:none;fill-rule:nonzero;fill:rgb(78.039551%,4.309082%,0%);fill-opacity:1;" d="M 331.90625 257.355469 L 309.742188 257.355469 C 293.953125 257.355469 288.609375 272.636719 288.609375 279.914062 L 288.609375 343.203125 L 310.773438 343.203125 L 310.773438 328.03125 L 331.570312 328.03125 L 331.570312 343.203125 L 353.042969 343.203125 L 353.042969 279.914062 C 353.058594 261.480469 337.382812 257.355469 331.90625 257.355469 Z M 310.660156 303.542969 L 310.660156 282.578125 C 310.660156 282.578125 310.660156 277.832031 317.601562 277.832031 L 325.214844 277.832031 C 331.34375 277.832031 331.457031 282.578125 331.457031 282.578125 L 331.457031 303.542969 Z M 310.660156 303.542969 "/>
</g>
<g clip-path="url(#clip8)" clip-rule="nonzero">
<path style=" stroke:none;fill-rule:nonzero;fill:rgb(78.039551%,4.309082%,0%);fill-opacity:1;" d="M 512.679688 279.425781 L 512.679688 257.355469 L 477.445312 257.355469 C 468.347656 257.355469 456.199219 265.34375 456.199219 280.269531 L 456.199219 287.902344 C 456.199219 302.828125 468.238281 310.460938 477.445312 310.460938 C 483.371094 310.480469 486.144531 310.5 487.328125 310.5 C 485.546875 310.480469 482.1875 310.460938 494.941406 310.460938 L 494.941406 321.132812 L 457.324219 321.246094 L 457.324219 343.203125 L 494.488281 343.203125 C 502.101562 343.203125 515.171875 337.257812 515.625 320.644531 L 515.625 312.148438 C 515.625 297.972656 504.710938 289.589844 494.488281 289.589844 L 475.960938 289.589844 L 475.960938 279.40625 L 512.679688 279.40625 Z M 512.679688 279.425781 "/>
</g>
<path style=" stroke:none;fill-rule:nonzero;fill:rgb(78.039551%,4.309082%,0%);fill-opacity:1;" d="M 225.730469 230.574219 L 223.238281 222.585938 C 219.375 223.789062 216.074219 225.136719 213.242188 226.46875 L 215.851562 234.832031 C 219.148438 233.125 222.449219 231.664062 225.730469 230.574219 Z M 225.730469 230.574219 "/>
</g>
</svg>
