<?xml version="1.0" encoding="UTF-8"?>
<svg xmlns="http://www.w3.org/2000/svg" xmlns:xlink="http://www.w3.org/1999/xlink" width="562.5pt" height="562.499982pt" viewBox="0 0 562.5 562.499982" version="1.2">
<defs>
<clipPath id="clip1">
  <path d="M 112.5 131 L 450 131 L 450 431 L 112.5 431 Z M 112.5 131 "/>
</clipPath>
</defs>
<g id="surface1">
<g clip-path="url(#clip1)" clip-rule="nonzero">
<path style=" stroke:none;fill-rule:nonzero;fill:rgb(0%,84.709167%,100%);fill-opacity:1;" d="M 389.765625 228.296875 C 386.28125 227.097656 382.660156 225.960938 378.925781 224.886719 C 379.542969 222.394531 380.109375 219.929688 380.609375 217.507812 C 388.804688 177.757812 383.449219 145.730469 365.125 135.183594 C 347.546875 125.074219 318.8125 135.617188 289.789062 160.820312 C 287 163.242188 284.195312 165.808594 281.40625 168.496094 C 279.539062 166.71875 277.683594 165 275.828125 163.355469 C 245.410156 136.40625 214.921875 125.050781 196.617188 135.625 C 179.0625 145.765625 173.863281 175.871094 181.253906 213.546875 C 181.964844 217.1875 182.800781 220.902344 183.742188 224.679688 C 179.425781 225.902344 175.261719 227.207031 171.277344 228.589844 C 135.617188 240.996094 112.84375 260.4375 112.84375 280.609375 C 112.84375 301.429688 137.292969 322.328125 174.433594 334.996094 C 177.363281 335.996094 180.40625 336.941406 183.539062 337.832031 C 182.523438 341.914062 181.636719 345.921875 180.894531 349.832031 C 173.851562 386.851562 179.351562 416.246094 196.859375 426.316406 C 214.941406 436.726562 245.292969 426.027344 274.84375 400.257812 C 277.183594 398.222656 279.527344 396.054688 281.867188 393.796875 C 284.921875 396.710938 287.960938 399.484375 290.972656 402.082031 C 319.601562 426.65625 347.875 436.582031 365.359375 426.488281 C 383.425781 416.050781 389.304688 384.464844 381.675781 346.050781 C 381.097656 343.109375 380.410156 340.117188 379.660156 337.070312 C 381.792969 336.441406 383.886719 335.785156 385.925781 335.117188 C 424.539062 322.34375 449.65625 301.71875 449.65625 280.609375 C 449.65625 260.367188 426.144531 240.792969 389.765625 228.296875 Z M 381.398438 321.488281 C 379.558594 322.09375 377.664062 322.683594 375.742188 323.246094 C 371.480469 309.792969 365.730469 295.46875 358.675781 280.671875 C 365.398438 266.234375 370.925781 252.097656 375.070312 238.722656 C 378.515625 239.714844 381.859375 240.765625 385.082031 241.871094 C 416.25 252.578125 435.261719 268.410156 435.261719 280.609375 C 435.261719 293.589844 414.738281 310.460938 381.398438 321.488281 Z M 367.558594 348.835938 C 370.9375 365.820312 371.414062 381.183594 369.175781 393.195312 C 367.175781 403.984375 363.136719 411.179688 358.152344 414.054688 C 347.535156 420.183594 324.839844 412.214844 300.367188 391.199219 C 297.550781 388.78125 294.722656 386.210938 291.894531 383.492188 C 301.378906 373.132812 310.867188 361.097656 320.128906 347.71875 C 336.402344 346.289062 351.78125 343.925781 365.742188 340.707031 C 366.425781 343.476562 367.03125 346.183594 367.558594 348.835938 Z M 227.675781 412.992188 C 217.304688 416.652344 209.046875 416.757812 204.054688 413.882812 C 193.429688 407.765625 189.011719 384.160156 195.035156 352.511719 C 195.726562 348.886719 196.546875 345.160156 197.496094 341.351562 C 211.292969 344.398438 226.5625 346.589844 242.882812 347.902344 C 252.207031 360.992188 261.96875 373.015625 271.796875 383.546875 C 269.652344 385.621094 267.507812 387.589844 265.375 389.441406 C 252.308594 400.847656 239.21875 408.933594 227.675781 412.992188 Z M 179.09375 321.410156 C 162.667969 315.804688 149.105469 308.53125 139.808594 300.574219 C 131.453125 293.445312 127.238281 286.359375 127.238281 280.609375 C 127.238281 268.371094 145.523438 252.757812 176.015625 242.148438 C 179.71875 240.859375 183.59375 239.648438 187.609375 238.507812 C 191.828125 252.1875 197.355469 266.496094 204.027344 280.949219 C 197.269531 295.625 191.660156 310.160156 187.40625 324.007812 C 184.539062 323.183594 181.761719 322.316406 179.09375 321.410156 Z M 195.378906 210.789062 C 189.046875 178.511719 193.25 154.164062 203.832031 148.050781 C 215.097656 141.542969 240.015625 150.824219 266.269531 174.089844 C 267.953125 175.578125 269.636719 177.132812 271.335938 178.746094 C 261.546875 189.230469 251.875 201.164062 242.636719 214.175781 C 226.796875 215.640625 211.632812 217.992188 197.691406 221.144531 C 196.816406 217.625 196.039062 214.167969 195.378906 210.789062 Z M 340.652344 246.585938 C 337.324219 240.84375 333.90625 235.234375 330.417969 229.777344 C 341.167969 231.132812 351.457031 232.933594 361.125 235.136719 C 358.230469 244.417969 354.613281 254.125 350.351562 264.078125 C 347.296875 258.289062 344.0625 252.453125 340.652344 246.585938 Z M 281.410156 189.003906 C 288.054688 196.179688 294.699219 204.1875 301.234375 212.878906 C 294.644531 212.570312 287.972656 212.410156 281.25 212.410156 C 274.59375 212.410156 267.976562 212.566406 261.425781 212.871094 C 267.964844 204.261719 274.671875 196.261719 281.410156 189.003906 Z M 221.785156 246.6875 C 218.457031 252.445312 215.285156 258.25 212.277344 264.066406 C 208.089844 254.148438 204.503906 244.398438 201.574219 234.984375 C 211.183594 232.839844 221.433594 231.082031 232.109375 229.753906 C 228.574219 235.257812 225.125 240.910156 221.785156 246.683594 Z M 232.417969 332.476562 C 221.386719 331.257812 210.984375 329.589844 201.378906 327.5 C 204.351562 317.917969 208.015625 307.964844 212.292969 297.832031 C 215.308594 303.648438 218.492188 309.449219 221.84375 315.226562 C 225.253906 321.109375 228.789062 326.859375 232.417969 332.476562 Z M 281.804688 373.214844 C 274.988281 365.875 268.1875 357.75 261.542969 349.019531 C 267.988281 349.269531 274.566406 349.398438 281.25 349.398438 C 288.117188 349.398438 294.90625 349.242188 301.578125 348.953125 C 295.027344 357.839844 288.394531 365.980469 281.804688 373.214844 Z M 350.480469 297.320312 C 354.980469 307.558594 358.785156 317.457031 361.796875 326.882812 C 352.035156 329.101562 341.484375 330.886719 330.378906 332.226562 C 333.878906 326.699219 337.324219 320.988281 340.71875 315.121094 C 344.152344 309.1875 347.402344 303.242188 350.480469 297.320312 Z M 328.246094 307.953125 C 322.984375 317.066406 317.578125 325.753906 312.089844 333.960938 C 302.105469 334.667969 291.777344 335.035156 281.25 335.035156 C 270.765625 335.035156 260.570312 334.722656 250.753906 334.078125 C 245.042969 325.769531 239.523438 317.050781 234.292969 308.03125 L 234.296875 308.03125 C 229.078125 299.039062 224.273438 289.96875 219.925781 280.949219 C 224.273438 271.917969 229.0625 262.832031 234.25 253.855469 L 234.25 253.859375 C 239.449219 244.859375 244.925781 236.179688 250.582031 227.914062 C 260.59375 227.160156 270.871094 226.765625 281.25 226.765625 C 291.683594 226.765625 301.960938 227.164062 311.972656 227.925781 C 317.550781 236.128906 322.984375 244.777344 328.207031 253.78125 C 333.484375 262.886719 338.339844 271.902344 342.71875 280.753906 C 338.351562 289.746094 333.507812 298.855469 328.246094 307.953125 Z M 357.929688 147.621094 C 369.21875 154.109375 373.597656 180.285156 366.507812 214.609375 C 366.058594 216.796875 365.546875 219.027344 364.992188 221.289062 C 351.019531 218.070312 335.851562 215.675781 319.972656 214.191406 C 310.710938 201.039062 301.117188 189.085938 291.488281 178.734375 C 294.078125 176.25 296.671875 173.878906 299.238281 171.644531 C 324.101562 150.054688 347.351562 141.527344 357.929688 147.621094 Z M 281.25 250.589844 C 297.855469 250.589844 311.328125 264.023438 311.328125 280.605469 C 311.328125 297.171875 297.855469 310.613281 281.25 310.613281 C 264.648438 310.613281 251.175781 297.171875 251.175781 280.605469 C 251.175781 264.023438 264.648438 250.589844 281.25 250.589844 Z M 281.25 250.589844 "/>
</g>
</g>
</svg>
