<svg width="219" height="228" viewBox="0 0 219 228" fill="none" xmlns="http://www.w3.org/2000/svg">
<g id="SpaceMan">
<g id="image">
<path id="Vector" d="M218.016 113.086C218.016 91.293 208.375 71.7266 193.035 58.3008C188.258 54.1133 184.973 48.543 183.395 42.4023C177.125 18.0781 154.723 0.062503 128.059 0.062503C114.918 0.035159 102.184 4.49219 91.9453 12.7266C86.1914 17.375 78.9141 19.793 71.4727 19.7656H71.3359C32.3984 19.793 0.820312 52.0781 0.820312 91.918C0.820312 114.527 11.0039 134.691 26.9141 147.926C34.707 154.367 38.9727 164.121 38.375 174.23C38.3203 174.992 38.293 175.781 38.293 176.566C38.293 204.613 69.4648 227.332 107.91 227.332C140.82 227.332 168.379 210.672 175.656 188.281C177.75 181.867 181.902 176.297 187.441 172.328C205.961 158.984 218.016 137.434 218.016 113.086Z" fill="#10294C"/>
<path id="Vector_2" d="M90.3164 102.543C88.4141 101.508 90.3164 98.8203 91.8086 99.7149C93.3047 100.641 92.7891 103.875 90.3164 102.543Z" fill="#F04E23"/>
<path id="Vector_3" d="M136.965 121.484C138.895 120.504 140.008 123.629 138.402 124.309C136.801 125.016 134.441 122.762 136.965 121.484Z" fill="#F04E23"/>
<path id="Vector_4" d="M94.1992 109.227C93.0313 108.004 94.6328 105.91 95.5039 107.543C96.3711 109.199 95.1758 110.234 94.1992 109.227Z" fill="#F04E23"/>
<path id="Vector_5" d="M143.562 109.852C144.648 111.047 142.937 112.598 142.18 111.074C141.418 109.582 142.668 108.875 143.562 109.852Z" fill="#F04E23"/>
<path id="Vector_6" d="M111.039 142.461C112.125 143.66 110.414 145.207 109.652 143.687C108.895 142.191 110.141 141.484 111.039 142.461Z" fill="#F04E23"/>
<path id="Vector_7" d="M123.957 87.4063C122.52 88.1641 121.461 85.6914 123.117 85.3125C124.773 84.9336 125.125 86.8086 123.957 87.4063Z" fill="#F04E23"/>
<path id="Vector_8" d="M188.527 149.746C188.527 149.883 188.5 150.016 188.449 150.141C188.398 150.27 188.324 150.379 188.227 150.477C188.129 150.574 188.016 150.648 187.891 150.699C187.766 150.754 187.633 150.777 187.496 150.777C187.359 150.777 187.227 150.754 187.102 150.699C186.977 150.648 186.863 150.574 186.766 150.477C186.668 150.379 186.594 150.27 186.543 150.141C186.492 150.016 186.465 149.883 186.465 149.746C186.465 149.609 186.492 149.477 186.543 149.352C186.594 149.223 186.668 149.113 186.766 149.016C186.863 148.918 186.977 148.844 187.102 148.793C187.227 148.738 187.359 148.715 187.496 148.715C187.633 148.715 187.766 148.738 187.891 148.793C188.016 148.844 188.129 148.918 188.227 149.016C188.324 149.113 188.398 149.223 188.449 149.352C188.5 149.477 188.527 149.609 188.527 149.746Z" fill="#FFB400"/>
<path id="Vector_9" d="M105.551 209.008C105.551 209.145 105.523 209.277 105.473 209.402C105.418 209.527 105.344 209.641 105.246 209.738C105.148 209.832 105.039 209.91 104.914 209.961C104.785 210.012 104.656 210.039 104.516 210.039C104.379 210.039 104.25 210.012 104.121 209.961C103.996 209.91 103.883 209.832 103.789 209.738C103.691 209.641 103.617 209.527 103.562 209.402C103.512 209.277 103.484 209.145 103.484 209.008C103.484 208.871 103.512 208.738 103.562 208.613C103.617 208.484 103.691 208.375 103.789 208.277C103.883 208.18 103.996 208.105 104.121 208.055C104.25 208 104.379 207.973 104.516 207.973C104.656 207.973 104.785 208 104.914 208.055C105.039 208.105 105.148 208.18 105.246 208.277C105.344 208.375 105.418 208.484 105.473 208.613C105.523 208.738 105.551 208.871 105.551 209.008Z" fill="#FFB400"/>
<path id="Vector_10" d="M166.777 167.816C166.777 167.953 166.754 168.086 166.699 168.211C166.648 168.34 166.574 168.449 166.477 168.547C166.379 168.645 166.27 168.719 166.141 168.773C166.016 168.824 165.883 168.852 165.746 168.852C165.609 168.852 165.477 168.824 165.352 168.773C165.227 168.719 165.113 168.645 165.016 168.547C164.922 168.449 164.848 168.34 164.793 168.211C164.742 168.086 164.715 167.953 164.715 167.816C164.715 167.68 164.742 167.551 164.793 167.422C164.848 167.297 164.922 167.184 165.016 167.086C165.113 166.992 165.227 166.918 165.352 166.863C165.477 166.813 165.609 166.785 165.746 166.785C165.883 166.785 166.016 166.813 166.141 166.863C166.27 166.918 166.379 166.992 166.477 167.086C166.574 167.184 166.648 167.297 166.699 167.422C166.754 167.551 166.777 167.68 166.777 167.816Z" fill="#FFB400"/>
<path id="Vector_11" d="M20.8594 118.875C20.8594 119.012 20.832 119.145 20.7812 119.27C20.7305 119.395 20.6562 119.508 20.5586 119.605C20.4609 119.703 20.3477 119.777 20.2227 119.828C20.0977 119.883 19.9648 119.906 19.8281 119.906C19.6914 119.906 19.5586 119.883 19.4336 119.828C19.3086 119.777 19.1953 119.703 19.0977 119.605C19 119.508 18.9258 119.395 18.875 119.27C18.8242 119.145 18.7969 119.012 18.7969 118.875C18.7969 118.738 18.8242 118.605 18.875 118.48C18.9258 118.352 19 118.242 19.0977 118.145C19.1953 118.047 19.3086 117.973 19.4336 117.922C19.5586 117.867 19.6914 117.84 19.8281 117.84C19.9648 117.84 20.0977 117.867 20.2227 117.922C20.3477 117.973 20.4609 118.047 20.5586 118.145C20.6562 118.242 20.7305 118.352 20.7812 118.48C20.832 118.605 20.8594 118.738 20.8594 118.875Z" fill="#FFB400"/>
<path id="Vector_12" d="M57.3516 123.141C57.3516 123.277 57.3281 123.41 57.2734 123.535C57.2227 123.664 57.1484 123.773 57.0508 123.871C56.9531 123.969 56.8437 124.043 56.7148 124.094C56.5898 124.148 56.457 124.172 56.3203 124.172C56.1836 124.172 56.0547 124.148 55.9258 124.094C55.8008 124.043 55.6875 123.969 55.5938 123.871C55.4961 123.773 55.4219 123.664 55.3672 123.535C55.3164 123.41 55.2891 123.277 55.2891 123.141C55.2891 123.004 55.3164 122.871 55.3672 122.746C55.4219 122.621 55.4961 122.508 55.5938 122.41C55.6875 122.313 55.8008 122.238 55.9258 122.188C56.0547 122.133 56.1836 122.109 56.3203 122.109C56.457 122.109 56.5898 122.133 56.7148 122.188C56.8437 122.238 56.9531 122.313 57.0508 122.41C57.1484 122.508 57.2227 122.621 57.2734 122.746C57.3281 122.871 57.3516 123.004 57.3516 123.141Z" fill="#FFB400"/>
<path id="Vector_13" d="M18.0898 77.1602C18.0898 77.2969 18.0625 77.4297 18.0117 77.5547C17.9609 77.6797 17.8867 77.793 17.7891 77.8906C17.6914 77.9883 17.5781 78.0625 17.4531 78.1133C17.3281 78.168 17.1953 78.1914 17.0586 78.1914C16.9219 78.1914 16.7891 78.168 16.6641 78.1133C16.5391 78.0625 16.4258 77.9883 16.3281 77.8906C16.2305 77.793 16.1562 77.6797 16.1055 77.5547C16.0547 77.4297 16.0273 77.2969 16.0273 77.1602C16.0273 77.0234 16.0547 76.8906 16.1055 76.7656C16.1562 76.6367 16.2305 76.5273 16.3281 76.4297C16.4258 76.332 16.5391 76.2578 16.6641 76.207C16.7891 76.1523 16.9219 76.1289 17.0586 76.1289C17.1953 76.1289 17.3281 76.1523 17.4531 76.207C17.5781 76.2578 17.6914 76.332 17.7891 76.4297C17.8867 76.5273 17.9609 76.6367 18.0117 76.7656C18.0625 76.8906 18.0898 77.0234 18.0898 77.1602Z" fill="#FFB400"/>
<path id="Vector_14" d="M92.1094 29.1406C92.1094 29.2773 92.082 29.4102 92.0312 29.5352C91.9766 29.6641 91.9023 29.7734 91.8047 29.8711C91.7109 29.9687 91.5977 30.043 91.4727 30.0938C91.3438 30.1484 91.2148 30.1719 91.0781 30.1719C90.9414 30.1719 90.8086 30.1484 90.6836 30.0938C90.5547 30.043 90.4453 29.9687 90.3477 29.8711C90.25 29.7734 90.1758 29.6641 90.125 29.5352C90.0703 29.4102 90.0469 29.2773 90.0469 29.1406C90.0469 29.0039 90.0703 28.8711 90.125 28.7461C90.1758 28.6172 90.25 28.5078 90.3477 28.4102C90.4453 28.3125 90.5547 28.2383 90.6836 28.1875C90.8086 28.1328 90.9414 28.1094 91.0781 28.1094C91.2148 28.1094 91.3438 28.1328 91.4727 28.1875C91.5977 28.2383 91.7109 28.3125 91.8047 28.4102C91.9023 28.5078 91.9766 28.6172 92.0312 28.7461C92.082 28.8711 92.1094 29.0039 92.1094 29.1406Z" fill="#FFB400"/>
<path id="Vector_15" d="M99.6289 20.9336C99.6289 21.0703 99.6055 21.2031 99.5508 21.3281C99.5 21.457 99.4258 21.5664 99.3281 21.6641C99.2305 21.7617 99.1211 21.8359 98.9922 21.8867C98.8672 21.9414 98.7344 21.9648 98.5977 21.9648C98.4609 21.9648 98.3281 21.9414 98.2031 21.8867C98.0781 21.8359 97.9648 21.7617 97.8672 21.6641C97.7734 21.5664 97.6992 21.457 97.6445 21.3281C97.5938 21.2031 97.5664 21.0703 97.5664 20.9336C97.5664 20.7969 97.5938 20.6641 97.6445 20.5391C97.6992 20.4102 97.7734 20.3008 97.8672 20.2031C97.9648 20.1055 98.0781 20.0312 98.2031 19.9805C98.3281 19.9258 98.4609 19.9023 98.5977 19.9023C98.7344 19.9023 98.8672 19.9258 98.9922 19.9805C99.1211 20.0312 99.2305 20.1055 99.3281 20.2031C99.4258 20.3008 99.5 20.4102 99.5508 20.5391C99.6055 20.6641 99.6289 20.7969 99.6289 20.9336Z" fill="#FFB400"/>
<path id="Vector_16" d="M50.293 160.914C50.293 161.051 50.2656 161.184 50.2148 161.309C50.1641 161.437 50.0898 161.547 49.9922 161.645C49.8945 161.742 49.7812 161.816 49.6562 161.871C49.5312 161.922 49.3984 161.949 49.2617 161.949C49.125 161.949 48.9922 161.922 48.8672 161.871C48.7422 161.816 48.6289 161.742 48.5312 161.645C48.4336 161.547 48.3594 161.437 48.3086 161.309C48.2578 161.184 48.2305 161.051 48.2305 160.914C48.2305 160.777 48.2578 160.645 48.3086 160.52C48.3594 160.395 48.4336 160.281 48.5312 160.184C48.6289 160.09 48.7422 160.012 48.8672 159.961C48.9922 159.91 49.125 159.883 49.2617 159.883C49.3984 159.883 49.5312 159.91 49.6562 159.961C49.7812 160.012 49.8945 160.09 49.9922 160.184C50.0898 160.281 50.1641 160.395 50.2148 160.52C50.2656 160.645 50.293 160.777 50.293 160.914Z" fill="#FFB400"/>
<path id="Vector_17" d="M82.5234 163.797C82.5234 163.934 82.4961 164.063 82.4453 164.191C82.3945 164.316 82.3203 164.43 82.2227 164.527C82.125 164.621 82.0117 164.699 81.8867 164.75C81.7617 164.801 81.6289 164.828 81.4922 164.828C81.3555 164.828 81.2227 164.801 81.0977 164.75C80.9727 164.699 80.8594 164.621 80.7617 164.527C80.6641 164.43 80.5898 164.316 80.5391 164.191C80.4883 164.063 80.4609 163.934 80.4609 163.797C80.4609 163.66 80.4883 163.527 80.5391 163.402C80.5898 163.273 80.6641 163.164 80.7617 163.066C80.8594 162.969 80.9727 162.895 81.0977 162.84C81.2227 162.789 81.3555 162.762 81.4922 162.762C81.6289 162.762 81.7617 162.789 81.8867 162.84C82.0117 162.895 82.125 162.969 82.2227 163.066C82.3203 163.164 82.3945 163.273 82.4453 163.402C82.4961 163.527 82.5234 163.66 82.5234 163.797Z" fill="#FFB400"/>
<path id="Vector_18" d="M131.344 181.125C131.344 181.262 131.316 181.395 131.266 181.52C131.215 181.648 131.141 181.758 131.043 181.855C130.945 181.953 130.832 182.027 130.707 182.078C130.582 182.133 130.449 182.16 130.312 182.16C130.176 182.16 130.043 182.133 129.918 182.078C129.793 182.027 129.68 181.953 129.582 181.855C129.484 181.758 129.41 181.648 129.359 181.52C129.309 181.395 129.281 181.262 129.281 181.125C129.281 180.988 129.309 180.855 129.359 180.73C129.41 180.605 129.484 180.492 129.582 180.395C129.68 180.297 129.793 180.223 129.918 180.172C130.043 180.121 130.176 180.094 130.312 180.094C130.449 180.094 130.582 180.121 130.707 180.172C130.832 180.223 130.945 180.297 131.043 180.395C131.141 180.492 131.215 180.605 131.266 180.73C131.316 180.855 131.344 180.988 131.344 181.125Z" fill="#FFB400"/>
<path id="Vector_19" d="M180.816 69.0898C180.816 69.2266 180.789 69.3555 180.738 69.4844C180.688 69.6094 180.609 69.7227 180.516 69.8203C180.418 69.9141 180.305 69.9922 180.18 70.043C180.055 70.0937 179.922 70.1211 179.785 70.1211C179.648 70.1211 179.516 70.0937 179.391 70.043C179.262 69.9922 179.152 69.9141 179.055 69.8203C178.957 69.7227 178.883 69.6094 178.832 69.4844C178.777 69.3555 178.754 69.2266 178.754 69.0898C178.754 68.9531 178.777 68.8203 178.832 68.6953C178.883 68.5664 178.957 68.457 179.055 68.3594C179.152 68.2617 179.262 68.1875 179.391 68.1328C179.516 68.082 179.648 68.0547 179.785 68.0547C179.922 68.0547 180.055 68.082 180.18 68.1328C180.305 68.1875 180.418 68.2617 180.516 68.3594C180.609 68.457 180.688 68.5664 180.738 68.6953C180.789 68.8203 180.816 68.9531 180.816 69.0898Z" fill="#FFB400"/>
<path id="Vector_20" d="M153.988 20.9336C153.988 21.0703 153.965 21.2031 153.91 21.3281C153.859 21.457 153.785 21.5664 153.688 21.6641C153.59 21.7617 153.48 21.8359 153.352 21.8867C153.227 21.9414 153.094 21.9648 152.957 21.9648C152.82 21.9648 152.691 21.9414 152.562 21.8867C152.438 21.8359 152.324 21.7617 152.227 21.6641C152.133 21.5664 152.059 21.457 152.004 21.3281C151.953 21.2031 151.926 21.0703 151.926 20.9336C151.926 20.7969 151.953 20.6641 152.004 20.5391C152.059 20.4102 152.133 20.3008 152.227 20.2031C152.324 20.1055 152.438 20.0312 152.562 19.9805C152.691 19.9258 152.82 19.9023 152.957 19.9023C153.094 19.9023 153.227 19.9258 153.352 19.9805C153.48 20.0312 153.59 20.1055 153.688 20.2031C153.785 20.3008 153.859 20.4102 153.91 20.5391C153.965 20.6641 153.988 20.7969 153.988 20.9336Z" fill="#FFB400"/>
<path id="Vector_21" d="M207.398 106.945C207.398 107.082 207.371 107.215 207.32 107.34C207.27 107.465 207.195 107.578 207.098 107.676C207 107.77 206.887 107.848 206.762 107.898C206.637 107.949 206.504 107.977 206.367 107.977C206.23 107.977 206.098 107.949 205.973 107.898C205.848 107.848 205.734 107.77 205.637 107.676C205.539 107.578 205.465 107.465 205.414 107.34C205.363 107.215 205.336 107.082 205.336 106.945C205.336 106.809 205.363 106.676 205.414 106.551C205.465 106.422 205.539 106.312 205.637 106.215C205.734 106.117 205.848 106.043 205.973 105.992C206.098 105.937 206.23 105.91 206.367 105.91C206.504 105.91 206.637 105.937 206.762 105.992C206.887 106.043 207 106.117 207.098 106.215C207.195 106.312 207.27 106.422 207.32 106.551C207.371 106.676 207.398 106.809 207.398 106.945Z" fill="#FFB400"/>
<path id="Vector_22" d="M158.605 156.539C158.605 156.676 158.578 156.809 158.527 156.934C158.477 157.062 158.398 157.172 158.305 157.27C158.207 157.367 158.094 157.441 157.969 157.492C157.844 157.547 157.711 157.574 157.574 157.574C157.437 157.574 157.305 157.547 157.18 157.492C157.051 157.441 156.941 157.367 156.844 157.27C156.746 157.172 156.672 157.062 156.621 156.934C156.566 156.809 156.543 156.676 156.543 156.539C156.543 156.402 156.566 156.27 156.621 156.145C156.672 156.02 156.746 155.906 156.844 155.809C156.941 155.711 157.051 155.637 157.18 155.586C157.305 155.535 157.437 155.508 157.574 155.508C157.711 155.508 157.844 155.535 157.969 155.586C158.094 155.637 158.207 155.711 158.305 155.809C158.398 155.906 158.477 156.02 158.527 156.145C158.578 156.27 158.605 156.402 158.605 156.539Z" fill="#FFB400"/>
<path id="Vector_23" d="M112.664 199.965C112.664 200.184 112.621 200.391 112.539 200.59C112.457 200.789 112.34 200.965 112.188 201.121C112.035 201.273 111.855 201.391 111.656 201.473C111.457 201.555 111.25 201.598 111.035 201.598C110.816 201.598 110.609 201.555 110.41 201.473C110.211 201.391 110.035 201.273 109.883 201.121C109.73 200.965 109.613 200.789 109.527 200.59C109.445 200.391 109.406 200.184 109.406 199.965C109.406 199.75 109.445 199.543 109.527 199.344C109.613 199.145 109.73 198.965 109.883 198.812C110.035 198.66 110.211 198.543 110.41 198.461C110.609 198.379 110.816 198.336 111.035 198.336C111.25 198.336 111.457 198.379 111.656 198.461C111.855 198.543 112.035 198.66 112.188 198.812C112.34 198.965 112.457 199.145 112.539 199.344C112.621 199.543 112.664 199.75 112.664 199.965Z" fill="#FFB400"/>
<path id="Vector_24" d="M186.871 64.0352C186.871 64.25 186.832 64.457 186.746 64.6562C186.664 64.8594 186.547 65.0352 186.395 65.1875C186.242 65.3398 186.066 65.457 185.867 65.5391C185.668 65.625 185.457 65.6641 185.242 65.6641C185.027 65.6641 184.82 65.625 184.617 65.5391C184.418 65.457 184.242 65.3398 184.09 65.1875C183.937 65.0352 183.82 64.8594 183.738 64.6562C183.656 64.457 183.613 64.25 183.613 64.0352C183.613 63.8164 183.656 63.6094 183.738 63.4102C183.82 63.2109 183.937 63.0352 184.09 62.8828C184.242 62.7266 184.418 62.6094 184.617 62.5273C184.82 62.4453 185.027 62.4023 185.242 62.4023C185.457 62.4023 185.668 62.4453 185.867 62.5273C186.066 62.6094 186.242 62.7266 186.395 62.8828C186.547 63.0352 186.664 63.2109 186.746 63.4102C186.832 63.6094 186.871 63.8164 186.871 64.0352Z" fill="#FFB400"/>
<path id="Vector_25" d="M177.125 35.8516C177.125 36.0703 177.082 36.2773 177 36.4766C176.918 36.6758 176.801 36.8516 176.648 37.0078C176.492 37.1602 176.316 37.2773 176.117 37.3594C175.918 37.4414 175.711 37.4844 175.496 37.4844C175.277 37.4844 175.07 37.4414 174.871 37.3594C174.672 37.2773 174.496 37.1602 174.344 37.0078C174.191 36.8516 174.07 36.6758 173.988 36.4766C173.906 36.2773 173.867 36.0703 173.867 35.8516C173.867 35.6367 173.906 35.4297 173.988 35.2305C174.07 35.0273 174.191 34.8516 174.344 34.6992C174.496 34.5469 174.672 34.4297 174.871 34.3477C175.07 34.2656 175.277 34.2227 175.496 34.2227C175.711 34.2227 175.918 34.2656 176.117 34.3477C176.316 34.4297 176.492 34.5469 176.648 34.6992C176.801 34.8516 176.918 35.0273 177 35.2305C177.082 35.4297 177.125 35.6367 177.125 35.8516Z" fill="#FFB400"/>
<path id="Vector_26" d="M100.5 43.3516C100.5 43.5703 100.457 43.7773 100.375 43.9766C100.293 44.1758 100.176 44.3516 100.023 44.5078C99.8672 44.6602 99.6914 44.7773 99.4922 44.8594C99.293 44.9414 99.0859 44.9844 98.8711 44.9844C98.6523 44.9844 98.4453 44.9414 98.2461 44.8594C98.0469 44.7773 97.8711 44.6602 97.7188 44.5078C97.5664 44.3516 97.4492 44.1758 97.3633 43.9766C97.2813 43.7773 97.2422 43.5703 97.2422 43.3516C97.2422 43.1367 97.2813 42.9297 97.3633 42.7305C97.4492 42.5312 97.5664 42.3516 97.7188 42.1992C97.8711 42.0469 98.0469 41.9297 98.2461 41.8477C98.4453 41.7656 98.6523 41.7227 98.8711 41.7227C99.0859 41.7227 99.293 41.7656 99.4922 41.8477C99.6914 41.9297 99.8672 42.0469 100.023 42.1992C100.176 42.3516 100.293 42.5312 100.375 42.7305C100.457 42.9297 100.5 43.1367 100.5 43.3516Z" fill="#FFB400"/>
<path id="Vector_27" d="M55.207 148.414C55.207 148.629 55.168 148.84 55.0859 149.039C55 149.238 54.8828 149.414 54.7305 149.566C54.5781 149.719 54.4023 149.84 54.2031 149.922C54.0039 150.004 53.7969 150.043 53.5781 150.043C53.3633 150.043 53.1563 150.004 52.957 149.922C52.7578 149.84 52.5781 149.719 52.4258 149.566C52.2734 149.414 52.1562 149.238 52.0742 149.039C51.9922 148.84 51.9492 148.629 51.9492 148.414C51.9492 148.199 51.9922 147.988 52.0742 147.789C52.1562 147.59 52.2734 147.414 52.4258 147.262C52.5781 147.109 52.7578 146.992 52.957 146.906C53.1563 146.824 53.3633 146.785 53.5781 146.785C53.7969 146.785 54.0039 146.824 54.2031 146.906C54.4023 146.992 54.5781 147.109 54.7305 147.262C54.8828 147.414 55 147.59 55.0859 147.789C55.168 147.988 55.207 148.199 55.207 148.414Z" fill="#FFB400"/>
<path id="Vector_28" d="M21.6484 126.918C21.6484 127.133 21.6055 127.344 21.5234 127.543C21.4414 127.742 21.3242 127.918 21.1719 128.07C21.0156 128.223 20.8398 128.344 20.6406 128.426C20.4414 128.508 20.2344 128.551 20.0195 128.551C19.8008 128.551 19.5938 128.508 19.3945 128.426C19.1953 128.344 19.0195 128.223 18.8672 128.07C18.7148 127.918 18.5977 127.742 18.5117 127.543C18.4297 127.344 18.3906 127.133 18.3906 126.918C18.3906 126.703 18.4297 126.496 18.5117 126.293C18.5977 126.094 18.7148 125.918 18.8672 125.766C19.0195 125.613 19.1953 125.496 19.3945 125.41C19.5938 125.328 19.8008 125.289 20.0195 125.289C20.2344 125.289 20.4414 125.328 20.6406 125.41C20.8398 125.496 21.0156 125.613 21.1719 125.766C21.3242 125.918 21.4414 126.094 21.5234 126.293C21.6055 126.496 21.6484 126.703 21.6484 126.918Z" fill="#FFB400"/>
<path id="Vector_29" d="M73.3477 97.1055C73.3477 97.3242 73.3047 97.5312 73.2227 97.7305C73.1406 97.9297 73.0234 98.1055 72.8672 98.2578C72.7148 98.4141 72.5391 98.5313 72.3398 98.6133C72.1406 98.6953 71.9336 98.7383 71.7188 98.7383C71.5 98.7383 71.293 98.6953 71.0938 98.6133C70.8945 98.5313 70.7188 98.4141 70.5664 98.2578C70.4141 98.1055 70.293 97.9297 70.2109 97.7305C70.1289 97.5312 70.0898 97.3242 70.0898 97.1055C70.0898 96.8906 70.1289 96.6836 70.2109 96.4844C70.293 96.2812 70.4141 96.1055 70.5664 95.9531C70.7188 95.8008 70.8945 95.6836 71.0938 95.6016C71.293 95.5156 71.5 95.4766 71.7188 95.4766C71.9336 95.4766 72.1406 95.5156 72.3398 95.6016C72.5391 95.6836 72.7148 95.8008 72.8672 95.9531C73.0234 96.1055 73.1406 96.2812 73.2227 96.4844C73.3047 96.6836 73.3477 96.8906 73.3477 97.1055Z" fill="#FFB400"/>
<path id="Vector_30" d="M140.801 51.4531C140.801 51.668 140.758 51.875 140.676 52.0742C140.594 52.2773 140.477 52.4531 140.324 52.6055C140.172 52.7578 139.996 52.875 139.793 52.957C139.594 53.0391 139.387 53.082 139.172 53.082C138.957 53.082 138.746 53.0391 138.547 52.957C138.348 52.875 138.172 52.7578 138.02 52.6055C137.867 52.4531 137.75 52.2773 137.668 52.0742C137.582 51.875 137.543 51.668 137.543 51.4531C137.543 51.2344 137.582 51.0273 137.668 50.8281C137.75 50.6289 137.867 50.4531 138.02 50.2969C138.172 50.1445 138.348 50.0273 138.547 49.9453C138.746 49.8633 138.957 49.8203 139.172 49.8203C139.387 49.8203 139.594 49.8633 139.793 49.9453C139.996 50.0273 140.172 50.1445 140.324 50.2969C140.477 50.4531 140.594 50.6289 140.676 50.8281C140.758 51.0273 140.801 51.2344 140.801 51.4531Z" fill="#FFB400"/>
<path id="Vector_31" d="M32.3203 50.418C32.3203 50.5547 32.293 50.6875 32.2383 50.8125C32.1875 50.9414 32.1133 51.0508 32.0156 51.1484C31.918 51.2461 31.8086 51.3203 31.6797 51.375C31.5547 51.4258 31.4219 51.4531 31.2852 51.4531C31.1484 51.4531 31.0195 51.4258 30.8906 51.375C30.7656 51.3203 30.6523 51.2461 30.5586 51.1484C30.4609 51.0508 30.3867 50.9414 30.332 50.8125C30.2813 50.6875 30.2539 50.5547 30.2539 50.418C30.2539 50.2812 30.2813 50.1484 30.332 50.0234C30.3867 49.8984 30.4609 49.7852 30.5586 49.6875C30.6523 49.5938 30.7656 49.5156 30.8906 49.4648C31.0195 49.4141 31.1484 49.3867 31.2852 49.3867C31.4219 49.3867 31.5547 49.4141 31.6797 49.4648C31.8086 49.5156 31.918 49.5938 32.0156 49.6875C32.1133 49.7852 32.1875 49.8984 32.2383 50.0234C32.293 50.1484 32.3203 50.2812 32.3203 50.418Z" fill="#FFB400"/>
<path id="Vector_32" d="M35.3047 42.918C35.3047 43.1367 35.2656 43.3437 35.1797 43.543C35.0977 43.7422 34.9805 43.918 34.8281 44.0703C34.6758 44.2227 34.5 44.3438 34.3008 44.4258C34.1016 44.5078 33.8906 44.5508 33.6758 44.5508C33.4609 44.5508 33.2539 44.5078 33.0508 44.4258C32.8516 44.3438 32.6758 44.2227 32.5234 44.0703C32.3711 43.918 32.2539 43.7422 32.1719 43.543C32.0898 43.3437 32.0469 43.1367 32.0469 42.918C32.0469 42.7031 32.0898 42.4961 32.1719 42.293C32.2539 42.0937 32.3711 41.918 32.5234 41.7656C32.6758 41.6133 32.8516 41.4961 33.0508 41.4141C33.2539 41.3281 33.4609 41.2891 33.6758 41.2891C33.8906 41.2891 34.1016 41.3281 34.3008 41.4141C34.5 41.4961 34.6758 41.6133 34.8281 41.7656C34.9805 41.918 35.0977 42.0937 35.1797 42.293C35.2656 42.4961 35.3047 42.7031 35.3047 42.918Z" fill="#FFB400"/>
<path id="Vector_33" d="M205.062 183.004C205.383 183.559 205.637 184.145 205.824 184.762C206.016 185.379 206.133 186.012 206.187 186.668C206.238 187.32 206.219 187.98 206.129 188.648C206.039 189.312 205.883 189.973 205.656 190.625C205.43 191.281 205.141 191.914 204.789 192.531C204.434 193.145 204.023 193.73 203.555 194.285C203.086 194.836 202.57 195.348 202.008 195.82C201.441 196.289 200.84 196.711 200.199 197.078C199.562 197.449 198.898 197.762 198.207 198.016C197.52 198.27 196.816 198.461 196.105 198.59C195.391 198.719 194.68 198.781 193.969 198.781C193.262 198.781 192.566 198.715 191.891 198.582C191.211 198.449 190.562 198.258 189.941 198C189.32 197.746 188.738 197.434 188.199 197.062C187.656 196.688 187.168 196.27 186.73 195.797C186.293 195.324 185.91 194.809 185.59 194.254C185.273 193.699 185.016 193.117 184.828 192.5C184.641 191.883 184.52 191.25 184.469 190.594C184.418 189.941 184.437 189.281 184.523 188.613C184.613 187.945 184.77 187.289 184.996 186.633C185.223 185.98 185.512 185.348 185.867 184.73C186.219 184.117 186.629 183.531 187.098 182.977C187.566 182.426 188.082 181.91 188.648 181.441C189.211 180.973 189.812 180.551 190.453 180.184C191.094 179.812 191.758 179.5 192.445 179.246C193.137 178.992 193.836 178.801 194.551 178.672C195.262 178.543 195.973 178.48 196.684 178.48C197.391 178.48 198.086 178.547 198.766 178.68C199.441 178.809 200.094 179.004 200.715 179.258C201.336 179.516 201.914 179.828 202.457 180.199C202.996 180.57 203.484 180.992 203.922 181.465C204.363 181.937 204.742 182.449 205.062 183.004Z" fill="#10294C"/>
<path id="Vector_34" d="M192.223 191.133C192.223 191.352 192.18 191.559 192.098 191.758C192.016 191.957 191.895 192.133 191.742 192.289C191.59 192.441 191.414 192.559 191.215 192.641C191.016 192.723 190.809 192.766 190.59 192.766C190.375 192.766 190.168 192.723 189.969 192.641C189.77 192.559 189.594 192.441 189.441 192.289C189.285 192.133 189.168 191.957 189.086 191.758C189.004 191.559 188.961 191.352 188.961 191.133C188.961 190.918 189.004 190.711 189.086 190.512C189.168 190.312 189.285 190.133 189.441 189.98C189.594 189.828 189.77 189.711 189.969 189.629C190.168 189.547 190.375 189.504 190.59 189.504C190.809 189.504 191.016 189.547 191.215 189.629C191.414 189.711 191.59 189.828 191.742 189.98C191.895 190.133 192.016 190.312 192.098 190.512C192.18 190.711 192.223 190.918 192.223 191.133Z" fill="#FFB400"/>
<path id="Vector_35" d="M195.914 186.051C195.914 186.191 195.887 186.32 195.836 186.449C195.781 186.574 195.707 186.688 195.609 186.781C195.516 186.879 195.402 186.953 195.277 187.008C195.148 187.059 195.02 187.086 194.883 187.086C194.746 187.086 194.613 187.059 194.488 187.008C194.359 186.953 194.25 186.879 194.152 186.781C194.055 186.688 193.98 186.574 193.93 186.449C193.875 186.32 193.852 186.191 193.852 186.051C193.852 185.914 193.875 185.785 193.93 185.656C193.98 185.531 194.055 185.418 194.152 185.324C194.25 185.227 194.359 185.152 194.488 185.098C194.613 185.047 194.746 185.02 194.883 185.02C195.02 185.02 195.148 185.047 195.277 185.098C195.402 185.152 195.516 185.227 195.609 185.324C195.707 185.418 195.781 185.531 195.836 185.656C195.887 185.785 195.914 185.914 195.914 186.051Z" fill="#FFB400"/>
<path id="Vector_36" d="M205.379 36.8086C205.684 37.3398 205.941 37.8906 206.148 38.4648C206.355 39.0391 206.512 39.6211 206.613 40.2148C206.715 40.8086 206.762 41.4023 206.754 41.9961C206.746 42.5859 206.68 43.168 206.562 43.7344C206.445 44.3047 206.273 44.8477 206.051 45.3672C205.828 45.8906 205.559 46.3789 205.238 46.832C204.918 47.2891 204.559 47.7031 204.152 48.0742C203.75 48.4453 203.312 48.7656 202.84 49.0391C202.367 49.3125 201.871 49.5312 201.348 49.6953C200.824 49.8594 200.285 49.9648 199.73 50.0156C199.18 50.0664 198.621 50.0547 198.059 49.9883C197.496 49.9219 196.937 49.7969 196.387 49.6133C195.836 49.4336 195.305 49.1992 194.789 48.9102C194.27 48.6211 193.781 48.2812 193.316 47.8984C192.855 47.5117 192.426 47.0859 192.035 46.6211C191.641 46.1523 191.293 45.6562 190.988 45.125C190.684 44.5937 190.426 44.043 190.219 43.4687C190.012 42.8984 189.855 42.3125 189.754 41.7187C189.652 41.125 189.605 40.5312 189.613 39.9414C189.621 39.3477 189.684 38.7656 189.801 38.1992C189.922 37.6328 190.09 37.0859 190.312 36.5664C190.535 36.043 190.809 35.5547 191.129 35.1016C191.445 34.6445 191.809 34.2305 192.211 33.8594C192.617 33.4883 193.055 33.168 193.527 32.8945C194 32.6211 194.496 32.4023 195.02 32.2383C195.543 32.0742 196.082 31.9687 196.633 31.918C197.187 31.8672 197.746 31.8789 198.309 31.9453C198.871 32.0117 199.43 32.1367 199.977 32.3203C200.527 32.5 201.062 32.7383 201.578 33.0273C202.094 33.3164 202.586 33.6523 203.047 34.0352C203.512 34.4219 203.941 34.8477 204.332 35.3164C204.723 35.7812 205.074 36.2812 205.379 36.8086Z" fill="#10294C"/>
<path id="Vector_37" d="M196.238 42.3477C196.238 42.4844 196.215 42.6172 196.16 42.7422C196.109 42.8711 196.035 42.9805 195.938 43.0781C195.84 43.1758 195.73 43.25 195.602 43.3008C195.477 43.3555 195.344 43.3789 195.207 43.3789C195.07 43.3789 194.938 43.3555 194.812 43.3008C194.688 43.25 194.574 43.1758 194.477 43.0781C194.383 42.9805 194.309 42.8711 194.254 42.7422C194.203 42.6172 194.176 42.4844 194.176 42.3477C194.176 42.2109 194.203 42.0781 194.254 41.9531C194.309 41.8242 194.383 41.7148 194.477 41.6172C194.574 41.5195 194.688 41.4453 194.812 41.3945C194.938 41.3398 195.07 41.3164 195.207 41.3164C195.344 41.3164 195.477 41.3398 195.602 41.3945C195.73 41.4453 195.84 41.5195 195.938 41.6172C196.035 41.7148 196.109 41.8242 196.16 41.9531C196.215 42.0781 196.238 42.2109 196.238 42.3477Z" fill="#FFB400"/>
<path id="Vector_38" d="M30.1445 163.621C30.4219 164.57 30.6133 165.531 30.7266 166.508C30.8359 167.48 30.8633 168.453 30.8047 169.422C30.7461 170.387 30.6055 171.332 30.3828 172.25C30.1562 173.172 29.8516 174.051 29.4687 174.891C29.082 175.73 28.6289 176.512 28.1016 177.238C27.5703 177.965 26.9805 178.621 26.332 179.203C25.6797 179.789 24.9805 180.289 24.2305 180.711C23.4805 181.129 22.6953 181.461 21.875 181.699C21.0547 181.941 20.2148 182.086 19.3594 182.137C18.5 182.187 17.6406 182.141 16.7773 182C15.9141 181.859 15.0625 181.625 14.2305 181.301C13.3945 180.973 12.5898 180.559 11.8125 180.059C11.0391 179.559 10.3086 178.98 9.62109 178.328C8.9375 177.672 8.30859 176.953 7.73828 176.172C7.17187 175.387 6.67187 174.555 6.23828 173.672C5.80859 172.793 5.45312 171.875 5.17578 170.93C4.89844 169.984 4.70703 169.02 4.59375 168.047C4.48437 167.07 4.45703 166.098 4.51562 165.133C4.57031 164.164 4.71484 163.223 4.9375 162.301C5.16406 161.379 5.46875 160.5 5.85156 159.66C6.23828 158.82 6.6914 158.039 7.21875 157.312C7.75 156.586 8.33594 155.934 8.98828 155.348C9.64062 154.766 10.3398 154.262 11.0898 153.844C11.8398 153.422 12.625 153.094 13.4453 152.852C14.2656 152.613 15.1055 152.469 15.9609 152.418C16.8203 152.367 17.6797 152.41 18.543 152.551C19.4062 152.691 20.2578 152.926 21.0898 153.254C21.9258 153.578 22.7305 153.992 23.5078 154.492C24.2812 154.992 25.0117 155.57 25.6992 156.223C26.3828 156.879 27.0117 157.598 27.582 158.379C28.1484 159.164 28.6484 159.996 29.082 160.879C29.5117 161.762 29.8672 162.676 30.1445 163.621Z" fill="#10294C"/>
<path id="Vector_39" d="M34.2188 195.457C34.2188 195.859 34.1797 196.258 34.1016 196.652C34.0234 197.051 33.9063 197.434 33.7539 197.805C33.5977 198.18 33.4102 198.531 33.1836 198.867C32.9609 199.203 32.707 199.512 32.4219 199.797C32.1367 200.082 31.8281 200.336 31.4922 200.562C31.1562 200.785 30.8047 200.977 30.4297 201.129C30.0586 201.285 29.6758 201.398 29.2812 201.48C28.8828 201.559 28.4844 201.598 28.082 201.598C27.6797 201.598 27.2812 201.559 26.8867 201.48C26.4922 201.398 26.1055 201.285 25.7344 201.129C25.3633 200.977 25.0078 200.785 24.6719 200.562C24.3398 200.34 24.0273 200.082 23.7422 199.797C23.457 199.512 23.2031 199.203 22.9805 198.867C22.7578 198.531 22.5664 198.18 22.4141 197.805C22.2578 197.434 22.1445 197.051 22.0625 196.652C21.9844 196.258 21.9453 195.859 21.9453 195.457C21.9453 195.051 21.9844 194.652 22.0625 194.258C22.1445 193.863 22.2578 193.477 22.4141 193.105C22.5664 192.73 22.7578 192.379 22.9805 192.043C23.2031 191.707 23.457 191.398 23.7422 191.113C24.0273 190.828 24.3398 190.574 24.6719 190.348C25.0078 190.125 25.3633 189.934 25.7344 189.781C26.1055 189.625 26.4922 189.512 26.8867 189.43C27.2812 189.352 27.6797 189.312 28.082 189.312C28.4844 189.312 28.8828 189.352 29.2812 189.43C29.6758 189.512 30.0586 189.625 30.4297 189.781C30.8047 189.934 31.1562 190.125 31.4922 190.348C31.8281 190.574 32.1367 190.828 32.4219 191.113C32.707 191.398 32.9609 191.707 33.1836 192.043C33.4102 192.379 33.5977 192.73 33.7539 193.105C33.9063 193.477 34.0234 193.863 34.1016 194.258C34.1797 194.652 34.2188 195.051 34.2188 195.457Z" fill="#10294C"/>
<path id="Vector_40" d="M17.4648 167.465C17.4648 167.602 17.4414 167.734 17.3867 167.859C17.3359 167.984 17.2617 168.098 17.1641 168.195C17.0664 168.293 16.957 168.367 16.8281 168.418C16.7031 168.473 16.5703 168.496 16.4336 168.496C16.2969 168.496 16.1641 168.473 16.0391 168.418C15.9141 168.367 15.8008 168.293 15.7031 168.195C15.6094 168.098 15.5352 167.984 15.4805 167.859C15.4297 167.734 15.4023 167.602 15.4023 167.465C15.4023 167.328 15.4297 167.195 15.4805 167.07C15.5352 166.941 15.6094 166.832 15.7031 166.734C15.8008 166.637 15.9141 166.562 16.0391 166.512C16.1641 166.457 16.2969 166.434 16.4336 166.434C16.5703 166.434 16.7031 166.457 16.8281 166.512C16.957 166.562 17.0664 166.637 17.1641 166.734C17.2617 166.832 17.3359 166.941 17.3867 167.07C17.4414 167.195 17.4648 167.328 17.4648 167.465Z" fill="#FFB400"/>
<path id="Vector_41" d="M25.4219 170.727C25.4219 170.941 25.3789 171.148 25.2969 171.348C25.2148 171.551 25.0977 171.727 24.9453 171.879C24.793 172.031 24.6172 172.148 24.4141 172.23C24.2148 172.316 24.0078 172.355 23.793 172.355C23.5781 172.355 23.3672 172.316 23.168 172.23C22.9687 172.148 22.793 172.031 22.6406 171.879C22.4883 171.727 22.3711 171.551 22.2891 171.348C22.2031 171.148 22.1641 170.941 22.1641 170.727C22.1641 170.508 22.2031 170.301 22.2891 170.102C22.3711 169.902 22.4883 169.727 22.6406 169.574C22.793 169.418 22.9687 169.301 23.168 169.219C23.3672 169.137 23.5781 169.094 23.793 169.094C24.0078 169.094 24.2148 169.137 24.4141 169.219C24.6172 169.301 24.793 169.418 24.9453 169.574C25.0977 169.727 25.2148 169.902 25.2969 170.102C25.3789 170.301 25.4219 170.508 25.4219 170.727Z" fill="#FFB400"/>
</g>
<g id="Sparkle">
<path id="Vector_42" d="M188.5 67.0977C188.5 69.8945 185.512 71.5234 182.707 71.5234C179.902 71.5234 177.629 69.25 177.629 66.4531C177.629 63.6562 180.445 60.7344 183.25 60.7344C186.059 60.7344 188.5 64.2969 188.5 67.0977Z" fill="#67CBB4"/>
<g id="Group">
<path id="Vector_43" d="M190.012 166.777C190.012 170.75 185.773 173.059 181.789 173.059C177.809 173.059 174.582 169.836 174.582 165.863C174.582 161.895 178.582 157.742 182.562 157.742C186.547 157.742 190.012 162.809 190.012 166.777Z" fill="#5F69BB"/>
</g>
<path id="Vector_44" d="M46.3086 47.4688C46.3086 50.2422 43.3516 51.8516 40.5703 51.8516C37.793 51.8516 35.5352 49.6016 35.5352 46.8281C35.5352 44.0547 38.3281 41.1602 41.1055 41.1602C43.8867 41.1602 46.3086 44.6953 46.3086 47.4688Z" fill="#6D91D2"/>
<path id="Vector_45" d="M50.5156 71.4219C50.5156 73.4766 48.3281 74.668 46.2656 74.668C44.207 74.668 42.543 73.0078 42.543 70.9531C42.543 68.8984 44.6055 66.75 46.668 66.75C48.7266 66.75 50.5156 69.3672 50.5156 71.4219Z" fill="#F68436"/>
<g id="Group_2">
<path id="Vector_46" d="M24.8516 90.7734C24.8516 92.8281 22.6641 94.0195 20.6016 94.0195C18.543 94.0195 16.8711 92.3594 16.8711 90.3047C16.8711 88.25 18.9414 86.1055 21 86.1055C23.0625 86.1055 24.8516 88.7187 24.8516 90.7734Z" fill="#F2535C"/>
</g>
<path id="Vector_47" d="M68.2188 193.801C68.2188 195.852 66.0273 197.047 63.9727 197.047C61.9141 197.047 60.2422 195.379 60.2422 193.324C60.2422 191.27 62.3086 189.129 64.3711 189.129C66.4258 189.129 68.2188 191.746 68.2188 193.801Z" fill="#EF2D6F"/>
<path id="Vector_48" d="M32.5 166.102L33.793 168.457C33.8945 168.641 34.0469 168.797 34.2344 168.898L36.5938 170.184C37.3711 170.613 37.3711 171.723 36.5938 172.145L34.2344 173.434C34.0469 173.535 33.8945 173.688 33.793 173.879L32.5 176.227C32.0781 177.008 30.9609 177.008 30.5352 176.227L29.2461 173.879C29.1445 173.688 28.9883 173.535 28.7969 173.434L26.4414 172.145C25.6602 171.723 25.6602 170.613 26.4414 170.184L28.7969 168.898C28.9883 168.797 29.1445 168.641 29.2461 168.457L30.5352 166.102C30.9609 165.328 32.0781 165.328 32.5 166.102Z" fill="#FBCB65"/>
<path id="Vector_49" d="M153.133 45.4688L154.488 47.9375C154.598 48.1328 154.758 48.3008 154.953 48.4062L157.43 49.7539C158.246 50.1992 158.246 51.3633 157.43 51.8086L154.953 53.1602C154.758 53.2695 154.598 53.4297 154.488 53.625L153.133 56.0938C152.688 56.9062 151.52 56.9062 151.074 56.0938L149.723 53.625C149.613 53.4297 149.449 53.2695 149.25 53.1602L146.777 51.8086C145.965 51.3633 145.965 50.1992 146.777 49.7539L149.25 48.4062C149.449 48.3008 149.613 48.1328 149.723 47.9375L151.074 45.4688C151.52 44.6562 152.688 44.6562 153.133 45.4688Z" fill="#FBCB65"/>
</g>
<g id="Man">
<path id="Vector_50" d="M153 186.955C156.281 190.583 158.395 197.849 154.023 200.779C146.906 205.521 138.906 204.001 135.664 198.482C134.371 196.251 132.371 190.337 131.629 187.845C129.023 179.173 129.766 168.642 128.047 162.458C127.332 159.872 125.125 154.72 123.262 150.591C130.82 142.185 143.859 136.134 147.812 138.095L147.836 138.076C150.949 145.908 153.125 152.99 153.34 156.603C153.586 160.951 152.012 172.091 150.477 179.357C149.699 183.013 151.539 185.33 153 186.955Z" fill="#CEE4F6"/>
<path id="Vector_51" d="M121.207 194.029C122.227 197.466 121.551 201.142 121.004 204.669C120.262 209.537 116.113 214.349 106.625 212.072C101.293 210.783 101.184 205.037 101.809 201.142C102.25 198.333 101.566 195.443 99.9336 193.091C96.5977 188.322 90.9102 179.427 88.4141 173.689C86.875 170.162 85.7812 160.22 85.2148 149.724C94.6914 145.861 100.957 148.111 113.148 153.806C112.641 158.365 112.184 163.654 112.445 166.255C113.113 172.986 118.98 186.509 121.207 194.029Z" fill="#CEE4F6"/>
<path id="Vector_52" d="M139.93 120.724C137.527 116.138 134.813 100.15 131.551 85.2592C129.082 74.0248 126.324 63.4194 123.141 58.7397V58.724C122 58.5873 120.824 58.4975 119.605 58.4701C117.957 58.4194 116.238 58.4819 114.457 58.6655C111.715 65.6225 105.863 71.2475 98.0898 73.4194C90.5195 75.5326 82.7656 73.892 76.8672 69.603C75.4805 70.3647 74.043 71.2787 72.5547 72.3295C72.1094 72.6264 71.6523 72.9623 71.1992 73.2983C71.1992 80.3959 73.1758 89.9233 75.5664 99.1498C79.5313 114.451 84.8047 129.103 84.7773 131.255C84.7109 136.74 84.8633 143.337 85.2148 149.724C94.6914 145.861 100.957 148.111 113.148 153.806C113.617 149.431 114.148 145.724 114.148 145.724C114.879 142.701 118.676 142.001 120.488 144.552C120.488 144.552 121.754 147.212 123.262 150.591C130.82 142.185 143.859 136.134 147.812 138.095L147.836 138.076C145.566 132.353 142.793 126.193 139.93 120.724Z" fill="#E0EDF9"/>
<path id="Vector_53" d="M119.605 58.4701C116.727 67.6615 109.379 75.2436 99.3867 78.0405C89.6797 80.7475 79.7578 78.3022 72.5547 72.3295C74.043 71.2787 75.4805 70.3647 76.8672 69.603C82.7656 73.892 90.5195 75.5326 98.0898 73.4194C105.863 71.2475 111.715 65.6225 114.457 58.6655C116.238 58.4819 117.957 58.4194 119.605 58.4701Z" fill="#A7C0E6"/>
<path id="Vector_54" d="M115.238 43.017C118.922 56.1342 111.242 69.7475 98.0977 73.4194C84.9414 77.0951 71.293 69.4428 67.6094 56.3256C63.9258 43.2084 71.6055 29.5951 84.75 25.9194C97.9062 22.2475 111.555 29.9037 115.238 43.017Z" fill="#E0EDF9"/>
<path id="Vector_55" d="M115.215 42.9272C117.813 52.1889 109.254 62.6772 96.1094 66.3529C82.9531 70.0248 70.1875 65.4975 67.5859 56.2358C64.9844 46.9779 73.5391 36.4858 86.6875 32.8139C99.8398 29.1381 112.613 33.6733 115.215 42.9272Z" fill="#453C64"/>
<path id="Vector_56" d="M112.309 101.255L100.445 104.568C97.3164 105.439 94.0664 103.619 93.1914 100.501L90.8125 92.0248C89.9375 88.9037 91.7617 85.6615 94.8867 84.7905L106.754 81.478C109.879 80.603 113.129 82.4194 114.004 85.5444L116.387 94.0209C117.262 97.142 115.441 100.376 112.309 101.255Z" fill="white"/>
<path id="Vector_57" d="M113.141 156.087C112.492 156.087 111.855 155.814 111.402 155.29C105.645 148.595 94.3047 148.482 86.0781 151.83C84.9062 152.31 83.5742 151.747 83.0976 150.583C82.6211 149.419 83.1797 148.091 84.3516 147.615C93.793 143.771 107.367 143.603 114.875 152.322C115.695 153.275 115.59 154.716 114.625 155.537C114.195 155.904 113.664 156.087 113.141 156.087Z" fill="#F2535C"/>
<path id="Vector_58" d="M123.254 152.865C122.902 152.865 122.551 152.783 122.219 152.615C121.094 152.044 120.648 150.673 121.219 149.552C126.312 139.568 143.223 133.275 148.828 136.052C149.961 136.611 150.426 137.982 149.859 139.103C149.301 140.24 147.926 140.697 146.801 140.138C144.223 138.861 129.617 143.154 125.297 151.619C124.891 152.408 124.086 152.865 123.254 152.865Z" fill="#F2535C"/>
<path id="Vector_59" d="M170.246 88.3139C177.562 89.4936 185.258 94.1772 182.258 100.576C181.187 102.826 173.965 104.591 173.449 105.212C172.852 105.927 172.93 108.251 172.352 108.978C171.77 109.712 168.789 110.755 166.953 109.333C165.117 107.872 162.383 104.146 161.668 101.212L170.246 88.3139Z" fill="#E0EDF9"/>
<path id="Vector_60" d="M170.246 88.3139L161.668 101.212C157.254 102.962 149.598 96.5326 131.684 85.349L131.41 85.4115C128.941 74.1772 126.184 63.5717 123 58.892L125.328 59.2436C126.52 59.392 127.816 59.7123 129.203 60.1694C133.559 61.5951 138.59 64.2709 142.301 66.4623C145.027 68.0522 147.059 69.3764 147.672 69.7553C158.27 76.4584 172.152 83.56 170.246 88.3139Z" fill="#CEE4F6"/>
<path id="Vector_61" d="M142.441 66.31C136.121 73.599 130.547 64.349 129.324 60.0287L129.344 60.017C133.699 61.4428 138.73 64.1186 142.441 66.31Z" fill="#6D91D2"/>
<path id="Vector_62" d="M53.8918 123.494C54.2589 126.837 53.1769 134.376 50.7668 135.47C49.2316 136.15 47.4152 135.497 46.9464 134.775C46.38 133.888 45.9972 133.283 45.0988 133.814C43.2707 134.904 38.4972 136.044 36.0636 134.697C30.6652 131.716 32.7121 123.162 39.7668 116.947L53.8918 123.494Z" fill="#E0EDF9"/>
<path id="Vector_63" d="M71.841 72.892C67.341 76.2045 62.5636 80.6264 58.0675 85.3959C46.7004 97.5092 37.2863 111.943 39.7668 116.947L53.8918 123.494C60.5324 123.33 67.2824 108.619 76.2082 98.7436C73.8175 89.517 71.841 79.9897 71.841 72.892Z" fill="#CEE4F6"/>
</g>
</g>
</svg>
