<?xml version="1.0" encoding="UTF-8"?>
<svg xmlns="http://www.w3.org/2000/svg" xmlns:xlink="http://www.w3.org/1999/xlink" width="562.5pt" height="562.499982pt" viewBox="0 0 562.5 562.499982" version="1.2">
<defs>
<clipPath id="clip1">
  <path d="M 104.847656 104.847656 L 457.042969 104.847656 L 457.042969 457.042969 L 104.847656 457.042969 Z M 104.847656 104.847656 "/>
</clipPath>
</defs>
<g id="surface1">
<g clip-path="url(#clip1)" clip-rule="nonzero">
<path style=" stroke:none;fill-rule:nonzero;fill:rgb(0%,47.839355%,79.998779%);fill-opacity:1;" d="M 104.847656 457.042969 L 457.042969 457.042969 L 457.042969 104.847656 L 104.847656 104.847656 Z M 104.847656 457.042969 "/>
</g>
<path style=" stroke:none;fill-rule:nonzero;fill:rgb(100%,100%,100%);fill-opacity:1;" d="M 182.714844 282.101562 L 182.605469 296.53125 L 228.445312 296.53125 L 228.445312 426.789062 L 260.871094 426.789062 L 260.871094 296.53125 L 306.714844 296.53125 L 306.714844 282.390625 C 306.714844 274.5625 306.546875 268.011719 306.324219 267.847656 C 306.15625 267.628906 278.257812 267.519531 244.433594 267.574219 L 182.878906 267.738281 Z M 182.714844 282.101562 "/>
<path style=" stroke:none;fill-rule:nonzero;fill:rgb(100%,100%,100%);fill-opacity:1;" d="M 389.039062 267.339844 C 397.980469 269.566406 404.804688 273.542969 411.066406 280.023438 C 414.296875 283.492188 419.113281 289.804688 419.5 291.320312 C 419.609375 291.773438 404.296875 302.050781 395.011719 307.8125 C 394.679688 308.035156 393.34375 306.574219 391.832031 304.347656 C 387.304688 297.742188 382.546875 294.894531 375.28125 294.398438 C 364.605469 293.671875 357.726562 299.257812 357.78125 308.597656 C 357.78125 311.335938 358.179688 312.960938 359.296875 315.1875 C 361.648438 320.058594 366.007812 322.960938 379.699219 328.890625 C 404.914062 339.730469 415.703125 346.886719 422.414062 357.066406 C 429.898438 368.417969 431.578125 386.519531 426.488281 399.988281 C 420.902344 414.640625 407.035156 424.589844 387.527344 427.890625 C 381.484375 428.949219 367.179688 428.785156 360.683594 427.617188 C 346.542969 425.097656 333.128906 418.109375 324.859375 408.945312 C 321.613281 405.371094 315.296875 396.027344 315.683594 395.355469 C 315.863281 395.132812 317.308594 394.238281 318.929688 393.289062 C 320.5 392.394531 326.429688 388.984375 332.011719 385.738281 L 342.125 379.875 L 344.257812 383 C 347.214844 387.527344 353.710938 393.730469 357.617188 395.808594 C 368.855469 401.722656 384.277344 400.882812 391.886719 394.074219 C 395.132812 391.101562 396.46875 388.035156 396.46875 383.507812 C 396.46875 379.421875 395.972656 377.632812 393.839844 374.566406 C 391.101562 370.644531 385.515625 367.34375 369.640625 360.476562 C 351.46875 352.648438 343.640625 347.78125 336.484375 340.0625 C 332.34375 335.589844 328.4375 328.4375 326.8125 322.453125 C 325.464844 317.484375 325.136719 305.019531 326.195312 299.984375 C 329.949219 282.429688 343.199219 270.1875 362.308594 266.554688 C 368.511719 265.386719 382.945312 265.824219 389.039062 267.339844 Z M 389.039062 267.339844 "/>
</g>
</svg>
